<svg xmlns="http://www.w3.org/2000/svg" aria-hidden="true" style="position:absolute;width:0;height:0;overflow:hidden">
  <defs>
    <symbol id="icon-facebook" viewBox="0 0 32 32">
      <path d="m21.95 5.005-3.306-.004c-3.206 0-5.277 2.124-5.277 5.415v2.495H10.05v4.515h3.317l-.004 9.575h4.641l.004-9.575h3.806l-.003-4.514h-3.803v-2.117c0-1.018.241-1.533 1.566-1.533l2.366-.001.01-4.256z"/>
    </symbol>
    <symbol id="icon-instagram" viewBox="0 0 32 32">
      <path d="M16 24a8 8 0 1 1 0-16 8 8 0 0 1 0 16zm0-2.667a5.333 5.333 0 1 0 0-10.667 5.333 5.333 0 0 0 0 10.667zM24 6.667a1.333 1.333 0 1 0 0 2.667 1.333 1.333 0 0 0 0-2.667z"/>
      <path d="M2.205 5.701a8.003 8.003 0 0 1 3.496-3.496c1.711-.872 3.951-.872 8.432-.872h3.733c4.48 0 6.721 0 8.432.872a8.003 8.003 0 0 1 3.496 3.496c.872 1.711.872 3.951.872 8.432v3.733c0 4.48 0 6.721-.872 8.432a8.003 8.003 0 0 1-3.496 3.496c-1.711.872-3.951.872-8.432.872h-3.733c-4.48 0-6.721 0-8.432-.872a8.003 8.003 0 0 1-3.496-3.496c-.872-1.711-.872-3.951-.872-8.432v-3.733c0-4.48 0-6.721.872-8.432zM17.867 4h-3.733c-2.284 0-3.837.002-5.037.1-1.169.096-1.767.269-2.184.481a5.331 5.331 0 0 0-2.331 2.331c-.213.417-.386 1.015-.481 2.184-.098 1.2-.1 2.753-.1 5.037v3.733c0 2.284.002 3.837.1 5.037.096 1.169.269 1.767.481 2.184a5.337 5.337 0 0 0 2.331 2.331c.417.213 1.015.386 2.184.481 1.2.098 2.753.1 5.037.1h3.733c2.284 0 3.837-.002 5.037-.1 1.169-.095 1.767-.269 2.184-.481a5.337 5.337 0 0 0 2.331-2.331c.213-.417.386-1.015.481-2.184.098-1.2.1-2.753.1-5.037v-3.733c0-2.284-.002-3.837-.1-5.037-.095-1.169-.269-1.767-.481-2.184a5.331 5.331 0 0 0-2.331-2.331c-.417-.213-1.015-.386-2.184-.481-1.2-.098-2.753-.1-5.037-.1z"/>
    </symbol>
    <symbol id="icon-twitter" viewBox="0 0 32 32">
      <path d="M26.377 5.224c.465-.11.789-.218 1.054-.332.372-.159.68-.35 1.168-.672a1.332 1.332 0 0 1 2.067 1.113c0 1.441-.18 2.622-.595 3.662-.35.874-.841 1.585-1.429 2.231-.248 4.484-1.546 8.006-3.531 10.674-2.057 2.765-4.793 4.536-7.678 5.528-2.876.989-5.915 1.21-8.638.875-2.705-.333-5.205-1.228-6.948-2.583a1.335 1.335 0 0 1 1.007-2.373c1.715.245 3.365-.145 4.722-.702a8.213 8.213 0 0 1-.753-.465c-1.237-.856-2.235-2.018-2.684-2.917a1.331 1.331 0 0 1 .394-1.664c-1.806-1.49-2.535-3.551-2.535-4.932a1.332 1.332 0 0 1 .964-1.281 9.86 9.86 0 0 1-.32-1.182c-.354-1.716-.323-3.652.062-5.193a1.333 1.333 0 0 1 2.449-.343C6.59 7.158 9.24 8.68 11.706 9.582c1.16.424 2.233.694 3.038.86.174-1.627.628-2.97 1.326-4.036a6.119 6.119 0 0 1 3.582-2.61c2.377-.64 5.014.089 6.724 1.428zm-12.046 7.854a24.506 24.506 0 0 1-3.539-.992c-1.81-.662-3.911-1.693-5.671-3.291.032.294.076.586.135.869.295 1.428.843 2.228 1.34 2.477.608.304.89 1.017.654 1.655-.319.864-1.16.934-1.923.744.614.921 1.718 1.838 3.559 2.145a1.333 1.333 0 0 1 .042 2.623l-1.161.232c.178.154.37.306.575.447.929.643 1.862.921 2.668.719a1.332 1.332 0 0 1 1.177 2.318c-.859.715-1.861 1.288-2.866 1.764-.472.223-.999.444-1.572.638.44.094.899.171 1.372.229 2.361.29 4.988.095 7.445-.75 2.449-.842 4.712-2.321 6.405-4.597 1.691-2.273 2.871-5.419 3.029-9.691.012-.336.152-.655.39-.893.599-.6 1.095-1.287 1.339-2.105-.427.133-.907.248-1.479.357a1.331 1.331 0 0 1-1.193-.367c-1.019-1.019-3.035-1.69-4.711-1.239a3.45 3.45 0 0 0-2.043 1.494c-.549.84-.97 2.149-.97 4.134 0 .377-.16.737-.44.99-.664.599-1.781.245-2.562.088z"/>
    </symbol>
  </defs>
</svg>