<svg xmlns="http://www.w3.org/2000/svg" xml:space="preserve" width="64.667" height="112.794" style="shape-rendering:geometricPrecision;text-rendering:geometricPrecision;image-rendering:optimizeQuality;fill-rule:evenodd;clip-rule:evenodd" viewBox="0 0 119 208">
  <defs>
    <linearGradient id="id0" x1="49.991%" x2="49.991%" y1="0%" y2="102.252%" gradientUnits="objectBoundingBox">
      <stop offset="0" style="stop-opacity:1;stop-color:#d2d3d5"/>
      <stop offset=".012" style="stop-opacity:1;stop-color:#d2d3d5"/>
      <stop offset=".071" style="stop-opacity:1;stop-color:#bdbfc1"/>
      <stop offset=".102" style="stop-opacity:1;stop-color:#a7a9ab"/>
      <stop offset=".251" style="stop-opacity:1;stop-color:#b1b3b5"/>
      <stop offset=".4" style="stop-opacity:1;stop-color:#b1b3b5"/>
      <stop offset=".91" style="stop-opacity:1;stop-color:#5c5c5e"/>
      <stop offset="1" style="stop-opacity:1;stop-color:#5c5c5e"/>
    </linearGradient>
    <linearGradient id="id1" x1="50.014%" x2="50.013%" y1="0%" y2="101.062%" gradientUnits="objectBoundingBox">
      <stop offset="0" style="stop-opacity:1;stop-color:#e6e7e8"/>
      <stop offset=".012" style="stop-opacity:1;stop-color:#e6e7e8"/>
      <stop offset=".58" style="stop-opacity:1;stop-color:#b9bbbd"/>
      <stop offset=".91" style="stop-opacity:1;stop-color:#8f9193"/>
      <stop offset="1" style="stop-opacity:1;stop-color:#8f9193"/>
    </linearGradient>
    <linearGradient id="id2" x1=".398%" x2="100.271%" y1="6.431%" y2="94.159%" gradientUnits="objectBoundingBox">
      <stop offset="0" style="stop-opacity:1;stop-color:#a9abae"/>
      <stop offset=".169" style="stop-opacity:1;stop-color:#a9abae"/>
      <stop offset=".529" style="stop-opacity:1;stop-color:#7d7f81"/>
      <stop offset=".91" style="stop-opacity:1;stop-color:#505052"/>
      <stop offset="1" style="stop-opacity:1;stop-color:#505052"/>
    </linearGradient>
    <linearGradient id="id3" x1="0%" x2="103.41%" y1="50.012%" y2="50.012%" gradientUnits="objectBoundingBox">
      <stop offset="0" style="stop-opacity:1;stop-color:#f1f1f2"/>
      <stop offset=".541" style="stop-opacity:1;stop-color:#d6d7d9"/>
      <stop offset=".871" style="stop-opacity:1;stop-color:#bbbdbf"/>
      <stop offset="1" style="stop-opacity:1;stop-color:#bbbdbf"/>
    </linearGradient>
    <linearGradient id="id4" x1="0%" x2="103.944%" y1="50.029%" y2="50.029%" gradientUnits="objectBoundingBox">
      <stop offset="0" style="stop-opacity:1;stop-color:#747678"/>
      <stop offset=".012" style="stop-opacity:1;stop-color:#747678"/>
      <stop offset=".58" style="stop-opacity:1;stop-color:#6d6e70"/>
      <stop offset=".91" style="stop-opacity:1;stop-color:#636466"/>
      <stop offset="1" style="stop-opacity:1;stop-color:#636466"/>
    </linearGradient>
    <linearGradient id="id5" x1="-22.589" x2="140.477" y1="42.778" y2="165.657" gradientUnits="userSpaceOnUse">
      <stop offset="0" style="stop-opacity:1;stop-color:#c2c3c5"/>
      <stop offset=".059" style="stop-opacity:1;stop-color:#d4d5d7"/>
      <stop offset=".122" style="stop-opacity:1;stop-color:#e4e5e6"/>
      <stop offset=".251" style="stop-opacity:1;stop-color:whitesmoke"/>
      <stop offset=".388" style="stop-opacity:1;stop-color:#e8e9ea"/>
      <stop offset=".471" style="stop-opacity:1;stop-color:#dcdddf"/>
      <stop offset=".749" style="stop-opacity:1;stop-color:#b5b7b9"/>
      <stop offset=".871" style="stop-opacity:1;stop-color:#c7c9cb"/>
      <stop offset="1" style="stop-opacity:1;stop-color:#c7c9cb"/>
    </linearGradient>
    <linearGradient id="id6" x1="0%" x2="127.488%" y1="22.06%" y2="78.048%" gradientUnits="objectBoundingBox">
      <stop offset="0" style="stop-opacity:1;stop-color:#505052"/>
      <stop offset=".059" style="stop-opacity:1;stop-color:#4e4e4f"/>
      <stop offset=".122" style="stop-opacity:1;stop-color:#4b4b4d"/>
      <stop offset=".251" style="stop-opacity:1;stop-color:#606062"/>
      <stop offset=".471" style="stop-opacity:1;stop-color:#4b4b4d"/>
      <stop offset=".749" style="stop-opacity:1;stop-color:#3f3d3e"/>
      <stop offset="1" style="stop-opacity:1;stop-color:#3f3d3e"/>
    </linearGradient>
    <style>
      .fil83{fill:#fefefe}.fil29{fill:#f5f5f5}.fil28{fill:#f3f4f4}.fil30{fill:#f1f1f1}.fil31{fill:#f0f0f0}.fil32{fill:#eee}.fil33{fill:#ebecec}.fil34{fill:#eaeaea}.fil35{fill:#e8e8e8}.fil36{fill:#e6e7e7}.fil37{fill:#e4e5e5}.fil38{fill:#e3e3e3}.fil39{fill:#e1e1e1}.fil40{fill:#dfe0e0}.fil41{fill:#ddddde}.fil42{fill:#dcdcdc}.fil58{fill:#d9dada}.fil59{fill:#d7d8d8}.fil60{fill:#d6d6d6}.fil61{fill:#d3d4d4}.fil62{fill:#d2d2d3}.fil63{fill:#cfd0d0}.fil64{fill:#cececf}.fil65{fill:#ccc}.fil46{fill:#cacbcb}.fil45{fill:#c8c8c9}.fil44{fill:#c5c6c6}.fil43{fill:#c4c5c5}.fil47{fill:#c2c2c3}.fil48{fill:#c0c1c1}.fil49{fill:#bebebf}.fil50{fill:#bcbdbd}.fil51{fill:#babbbb}.fil52{fill:#b8b9ba}.fil53{fill:#b6b7b7}.fil54{fill:#b5b5b6}.fil55{fill:#b2b3b3}.fil56{fill:#b0b0b1}.fil57{fill:#aeafaf}.fil75{fill:#a8a8a9}.fil74{fill:#a6a7a7}.fil73{fill:#a4a4a4}.fil72{fill:#a2a3a3}.fil71{fill:#a0a0a0}.fil70{fill:#9d9e9e}.fil69{fill:#9c9c9c}.fil68{fill:#999a99}.fil67{fill:#979898}.fil66{fill:#959595}.fil76{fill:#939494}.fil77{fill:#919191}.fil78{fill:#8f908f}.fil79{fill:#8d8d8d}.fil80{fill:#8b8b8b}.fil23{fill:#898989}.fil22{fill:#868686}.fil21{fill:#848584}.fil20{fill:#828281}.fil19{fill:gray}.fil18{fill:#7d7d7d}.fil17{fill:#7c7c7b}.fil16{fill:#797978}.fil15{fill:#777}.fil14{fill:#747474}.fil13{fill:#727271}.fil12{fill:#70706f}.fil11{fill:#6d6d6d}.fil10{fill:#6b6b6b}.fil9{fill:#696968}.fil8{fill:#676766}.fil7{fill:#646464}.fil6{fill:#636262}.fil5{fill:#60605f}.fil24{fill:#5e5e5d}.fil25{fill:#5b5b5b}.fil26{fill:#2b2a29}.fil1{fill:#ec268f}.fil84,.fil85{fill:#fefefe;fill-rule:nonzero}.fil85{fill:#2b2a29}.fil4{fill:url(#id0)}.fil0{fill:url(#id1)}.fil2{fill:url(#id2)}.fil27{fill:url(#id3)}.fil3{fill:url(#id4)}.fil81{fill:url(#id6)}
    </style>
  </defs>
  <g id="Слой_x0020_1">
    <g id="_2209526386432">
      <path d="M0 12v184c0 3 2 6 4 8V11H0v1z" class="fil0"/>
      <path d="M13 1C6 1 1 6 1 13v182c0 7 5 12 12 12h93c7 0 12-5 12-12V13c0-7-5-12-12-12H13z" class="fil1"/>
      <path d="M108 0H11C5 0 0 5 0 12v184c0 6 4 10 9 12h101c5-1 8-5 9-10V10c-1-5-5-10-11-10z" class="fil2"/>
      <path d="M115 204H4c2 2 5 4 8 4h95c3 0 6-2 8-4z" class="fil3"/>
      <path d="M115 7v197c2-2 4-5 4-8V12c0-2-1-3-1-5h-3z" class="fil4"/>
      <path d="m108 208-1-4h4v3c-1 0-2 0-3 1z" class="fil5"/>
      <path d="m108 208-1-4h4v3c-1 0-2 0-3 1z" class="fil5"/>
      <path d="m108 208-1-4h4v3c-1 0-2 0-3 1z" class="fil6"/>
      <path d="m108 208-1-4h4v3c-1 0-2 0-3 1z" class="fil6"/>
      <path d="m108 208-1-4h4v3c-1 0-2 0-3 1z" class="fil6"/>
      <path d="m108 208-1-4h4v3c-1 0-2 0-3 1z" class="fil7"/>
      <path d="m108 208-1-4h4v3c-1 0-2 0-3 1z" class="fil7"/>
      <path d="M108 208v-4h3v3c-1 0-2 0-3 1z" class="fil8"/>
      <path d="M108 208v-4h3v3c-1 0-2 0-3 1z" class="fil8"/>
      <path d="M108 208v-4h3v3c-1 0-2 0-3 1z" class="fil8"/>
      <path d="M108 207v-3h3v3h-3z" class="fil9"/>
      <path d="M108 207v-3h3v3h-3z" class="fil9"/>
      <path d="M108 207v-3h3v3h-3z" class="fil10"/>
      <path d="M108 207v-3h3v3h-3z" class="fil10"/>
      <path d="M108 207v-3h3v3h-3z" class="fil10"/>
      <path d="M108 207v-3h3v3h-3z" class="fil11"/>
      <path d="M108 207v-3h3v3h-3z" class="fil11"/>
      <path d="M108 207v-3h3v3h-3z" class="fil11"/>
      <path d="M108 207v-3h3v3h-3z" class="fil12"/>
      <path d="m109 207-1-3h3v3h-2z" class="fil12"/>
      <path d="m109 207-1-3h3v3h-2z" class="fil13"/>
      <path d="m109 207-1-3h3v3h-2z" class="fil13"/>
      <path d="m109 207-1-3h3v3h-2z" class="fil13"/>
      <path d="m109 207-1-3h3v3h-2z" class="fil14"/>
      <path d="m109 207-1-3h3v3h-2z" class="fil14"/>
      <path d="m109 207-1-3h3v3h-2z" class="fil15"/>
      <path d="m109 207-1-3h3v3h-2z" class="fil15"/>
      <path d="M109 207v-3h2v3h-2z" class="fil15"/>
      <path d="M109 207v-3h2v3h-2z" class="fil16"/>
      <path d="M109 207v-3h2v3h-2z" class="fil16"/>
      <path d="M109 207v-3h2v3h-2z" class="fil16"/>
      <path d="M109 207v-3h2v3h-2z" class="fil17"/>
      <path d="M109 207v-3h2v3h-2z" class="fil17"/>
      <path d="M109 207v-3h2v3h-2z" class="fil18"/>
      <path d="M109 207v-3h2v3h-2z" class="fil18"/>
      <path d="M109 207v-3h2v3h-2z" class="fil18"/>
      <path d="M109 207v-3h2v3h-2z" class="fil19"/>
      <path d="M109 207v-3h2v3h-2z" class="fil19"/>
      <path d="M109 207v-3h2v3h-2z" class="fil20"/>
      <path d="m110 207-1-3h2v3h-1z" class="fil20"/>
      <path d="m110 207-1-3h2v3h-1z" class="fil20"/>
      <path d="m110 207-1-3h2v3h-1z" class="fil21"/>
      <path d="m110 207-1-3h2v3h-1z" class="fil21"/>
      <path d="m110 207-1-3h2v3h-1z" class="fil21"/>
      <path d="m110 207-1-3h2v3h-1z" class="fil22"/>
      <path d="m110 207-1-3h2v3h-1z" class="fil22"/>
      <path d="M110 207v-3h1v3h-1z" class="fil23"/>
      <path d="M110 207v-3h1v3h-1z" class="fil23"/>
      <path d="m110 207-1-3 3-1 1 3c-1 0-2 1-3 1z" class="fil23"/>
      <path d="m110 207-1-3 3-1 1 3c-1 0-2 1-3 1z" class="fil23"/>
      <path d="m110 207-1-3 3-1 1 3c-1 0-2 1-3 1z" class="fil22"/>
      <path d="m110 207-1-3 3-1 1 3c-1 0-2 1-3 1z" class="fil22"/>
      <path d="m110 207-1-3 3-1 1 3s-1 1-3 1z" class="fil21"/>
      <path d="m111 207-1-3 2-1 1 3s-1 1-2 1z" class="fil21"/>
      <path d="m111 207-1-3 2-1 1 3s-1 1-2 1z" class="fil21"/>
      <path d="m111 207-1-3 2-1 1 3s-1 1-2 1z" class="fil20"/>
      <path d="m111 207-1-3 2-1 1 3s-1 1-2 1z" class="fil20"/>
      <path d="m111 207-1-3 2-1 1 3s-1 1-2 1z" class="fil19"/>
      <path d="m111 207-1-3 2-1 1 3s-1 1-2 1z" class="fil19"/>
      <path d="m111 207-1-3 2-1 1 3s-1 1-2 1z" class="fil19"/>
      <path d="m111 207-1-3 2-1 1 3s-1 1-2 1z" class="fil18"/>
      <path d="m111 207-1-3 2-1 1 3s-1 1-2 1z" class="fil18"/>
      <path d="m111 207-1-3 2-1 1 3s-1 1-2 1z" class="fil18"/>
      <path d="m111 207-1-3 2-1 1 3s-1 1-2 1z" class="fil17"/>
      <path d="m111 207-1-3 2-1 1 3s-1 1-2 1z" class="fil17"/>
      <path d="m111 207-1-3 2-1 1 3s-1 1-2 1z" class="fil16"/>
      <path d="m111 207-1-3 2-1 1 3s-1 0-2 1z" class="fil16"/>
      <path d="m111 207-1-3 2-1 1 3s-1 0-2 1z" class="fil16"/>
      <path d="m111 207-1-3 2-1 1 3s-1 0-2 1z" class="fil15"/>
      <path d="m112 207-2-3 2-1 1 3s-1 0-1 1z" class="fil15"/>
      <path d="m112 207-2-3 2-1 1 3s-1 0-1 1z" class="fil14"/>
      <path d="m112 207-2-3 2-1 1 3s-1 0-1 1z" class="fil14"/>
      <path d="m112 207-1-3 1-1 1 3s-1 0-1 1z" class="fil14"/>
      <path d="m112 207-1-3 1-1 1 3s-1 0-1 1z" class="fil13"/>
      <path d="m112 207-1-3 1-1 1 3s-1 0-1 1z" class="fil13"/>
      <path d="m112 207-1-3 1-1 1 3s-1 0-1 1z" class="fil12"/>
      <path d="m112 207-1-3 1-1 1 3s-1 0-1 1z" class="fil12"/>
      <path d="m112 206-1-2 1-1 1 3h-1z" class="fil12"/>
      <path d="m112 206-1-2 1-1 1 3h-1z" class="fil11"/>
      <path d="m112 206-1-2 1-1 1 3h-1z" class="fil11"/>
      <path d="m113 206-2-2 3-3 2 2-3 3z" class="fil11"/>
      <path d="m113 206-2-3 3-2 2 2-3 3z" class="fil11"/>
      <path d="m113 206-1-3 2-2 2 2c-1 1-1 2-3 3z" class="fil10"/>
      <path d="m114 206-2-3 2-2 2 2c-1 1-1 2-2 3z" class="fil10"/>
      <path d="m114 206-2-3 2-2 2 2c0 1-1 2-2 3z" class="fil9"/>
      <path d="m114 206-2-3 2-2 2 2c0 1-1 2-2 3z" class="fil9"/>
      <path d="m114 206-2-3 2-2 2 2c0 1-1 2-2 3z" class="fil9"/>
      <path d="m114 205-2-2 2-2 2 2c0 1-1 2-2 2z" class="fil8"/>
      <path d="m114 205-2-2 2-2 2 2c0 1-1 2-2 2z" class="fil8"/>
      <path d="m114 205-2-2 2-2 2 2c0 1-1 2-2 2z" class="fil7"/>
      <path d="m114 205-2-2 2-2 2 2c0 1-1 2-2 2z" class="fil7"/>
      <path d="m114 205-2-2 2-2 2 2c0 1-1 2-2 2z" class="fil7"/>
      <path d="m114 205-2-2 2-2 2 2c0 1-1 2-2 2z" class="fil6"/>
      <path d="m114 205-2-2 2-2 2 2c0 1-1 2-2 2z" class="fil6"/>
      <path d="m114 205-2-2 2-2 2 2c0 1-1 1-2 2z" class="fil6"/>
      <path d="m114 205-2-2 2-2 2 2c0 1-1 1-2 2z" class="fil5"/>
      <path d="m115 205-2-2 1-2 2 2c0 1-1 1-1 2z" class="fil5"/>
      <path d="m115 205-2-2 1-3 2 3c0 1-1 1-1 2z" class="fil24"/>
      <path d="m115 205-2-3 1-2 2 3c0 1-1 1-1 2z" class="fil24"/>
      <path d="m115 205-2-3 1-2 3 3c-1 1-2 1-2 2z" class="fil24"/>
      <path d="m115 205-2-3 1-2 3 3c-1 1-2 1-2 2z" class="fil25"/>
      <path d="m115 205-2-3 1-2 3 3c-1 1-2 1-2 2z" class="fil26"/>
      <path d="m115 205-2-3 1-2 3 3c-1 0-1 1-2 2z" class="fil26"/>
      <path d="m115 205-2-3 1-2 3 3c-1 0-1 1-2 2z" class="fil26"/>
      <path d="m115 204-2-2 1-2 3 3c-1 0-1 1-2 1z" class="fil26"/>
      <path d="m115 204-2-2 1-2 3 3c-1 0-1 1-2 1z" class="fil26"/>
      <path d="m115 204-2-2 1-2 3 3c-1 0-1 1-2 1z" class="fil26"/>
      <path d="m116 203-2-2 2-3 2 2c0 1-1 2-2 3z" class="fil26"/>
      <path d="m116 203-2-2 2-3 2 2c0 1-1 2-2 3z" class="fil26"/>
      <path d="m116 203-2-2 2-3 2 2c0 1-1 2-2 3z" class="fil26"/>
      <path d="m116 203-2-2 2-3 2 2c0 1-1 2-2 3z" class="fil26"/>
      <path d="m116 203-2-2 2-3 2 2c0 1-1 2-2 3z" class="fil26"/>
      <path d="m116 203-2-2 2-3 2 2c0 1-1 2-2 3z" class="fil26"/>
      <path d="m116 203-2-2 2-3 2 2c0 1-1 2-2 3z" class="fil25"/>
      <path d="m117 203-3-2 2-3 2 2c0 1-1 2-1 3z" class="fil24"/>
      <path d="m117 203-3-2 2-3 2 2c0 1-1 2-1 3z" class="fil24"/>
      <path d="m117 203-3-2 2-3 2 2c0 1-1 2-1 3z" class="fil24"/>
      <path d="m117 203-3-2 2-3 2 2c0 1-1 2-1 3z" class="fil5"/>
      <path d="m117 203-3-2 2-3 2 2c0 1-1 2-1 3z" class="fil5"/>
      <path d="m117 203-3-2 2-3 2 2c0 1-1 2-1 3z" class="fil6"/>
      <path d="m117 203-3-2 2-3 2 2c0 1-1 2-1 3z" class="fil6"/>
      <path d="m117 203-3-2 2-3 2 2c0 1-1 2-1 3z" class="fil6"/>
      <path d="m117 203-3-2 2-3 2 2c0 1-1 2-1 3z" class="fil7"/>
      <path d="m117 202-3-1 2-3 2 2c0 1-1 2-1 2z" class="fil7"/>
      <path d="m117 202-3-1 2-3 2 2c0 1-1 2-1 2z" class="fil7"/>
      <path d="m117 202-3-2 2-2 2 2c0 1-1 2-1 2z" class="fil8"/>
      <path d="m117 202-3-2 2-2 2 2c0 1-1 2-1 2z" class="fil8"/>
      <path d="m117 202-3-2 2-2 2 2c0 1-1 1-1 2z" class="fil9"/>
      <path d="m117 202-3-2 2-2 2 2c0 1-1 1-1 2z" class="fil9"/>
      <path d="m117 202-3-2 2-2 2 2c0 1-1 1-1 2z" class="fil9"/>
      <path d="m117 202-3-2 2-2 2 2c0 1-1 1-1 2z" class="fil10"/>
      <path d="m117 202-3-2 2-2 2 2c0 1-1 1-1 2z" class="fil10"/>
      <path d="m117 202-3-2 2-2 2 2c0 1-1 1-1 2z" class="fil11"/>
      <path d="m117 202-3-2 2-2 2 2c0 1 0 1-1 2z" class="fil11"/>
      <path d="m117 202-3-2 2-2 2 2s0 1-1 2z" class="fil11"/>
      <path d="m117 202-3-2 2-2 2 2s0 1-1 2z" class="fil12"/>
      <path d="m117 202-3-2 2-2 2 2s0 1-1 2z" class="fil12"/>
      <path d="m117 202-3-2 2-2 2 2s0 1-1 2z" class="fil12"/>
      <path d="m117 202-3-2 2-2 2 2s0 1-1 2z" class="fil13"/>
      <path d="m117 202-2-2 1-2 2 2s0 1-1 2z" class="fil13"/>
      <path d="m117 202-2-2 1-2 2 2s0 1-1 2z" class="fil14"/>
      <path d="m117 202-2-2 1-2 2 2s0 1-1 2z" class="fil14"/>
      <path d="m117 202-2-2 1-2 2 2s0 1-1 2z" class="fil14"/>
      <path d="m117 202-2-2 1-2 2 2s0 1-1 2z" class="fil15"/>
      <path d="m117 202-2-2 1-2 2 2s0 1-1 2z" class="fil15"/>
      <path d="m117 202-2-2 1-2 2 2s0 1-1 2z" class="fil16"/>
      <path d="m117 201-2-1 1-2 2 2s0 1-1 1z" class="fil16"/>
      <path d="m117 201-2-1 1-2 2 2s0 1-1 1z" class="fil16"/>
      <path d="m117 201-2-1 1-2 2 2s0 1-1 1z" class="fil17"/>
      <path d="m117 201-2-1 1-2 2 2s0 1-1 1z" class="fil17"/>
      <path d="m117 201-2-1 1-2 2 2s0 1-1 1z" class="fil17"/>
      <path d="m118 201-3-1 1-2 2 2v1z" class="fil18"/>
      <path d="m118 201-3-1 1-2 2 2v1z" class="fil18"/>
      <path d="m118 201-3-1 1-2 2 2v1z" class="fil19"/>
      <path d="m118 201-3-1 1-2 2 2v1z" class="fil19"/>
      <path d="M107 0H12C8 0 4 3 2 7h116c-2-4-7-7-11-7z" class="fil27"/>
      <path d="M4 8 2 7l1-2s0-1 1-1l2-2 1 3-1 2-2 1z" class="fil28"/>
      <path d="m6 8-1 3-4-2c0-1 0-2 1-3l4 2z" class="fil29"/>
      <path d="m6 8-1 3-4-2c0-1 0-2 1-2l4 1z" class="fil29"/>
      <path d="m6 8-1 3-4-2c0-1 0-2 1-2l4 1z" class="fil28"/>
      <path d="m6 8-1 3-4-2c0-1 0-2 1-2l4 1z" class="fil28"/>
      <path d="m6 8-1 3-4-2c0-1 0-2 1-2l4 1z" class="fil30"/>
      <path d="m6 9-1 2-4-2c0-1 0-2 1-2l4 2z" class="fil30"/>
      <path d="m6 9-1 2-4-2c0-1 0-2 1-2l4 2z" class="fil30"/>
      <path d="m6 9-1 2-4-2c0-1 0-2 1-2l4 2z" class="fil31"/>
      <path d="m6 9-1 2-4-2c0-1 0-2 1-2l4 2z" class="fil31"/>
      <path d="m6 9-1 2-4-2c0-1 0-2 1-2l4 2z" class="fil31"/>
      <path d="m6 9-1 2-4-2c0-1 0-2 1-2l4 2z" class="fil32"/>
      <path d="m6 9-1 2-4-2c0-1 0-2 1-2l4 2z" class="fil32"/>
      <path d="m6 9-1 2-4-2c0-1 0-2 1-2l4 2z" class="fil33"/>
      <path d="m6 9-1 2-4-2c0-1 0-1 1-2l4 2z" class="fil33"/>
      <path d="m6 9-1 2-4-2c0-1 0-1 1-2l4 2z" class="fil33"/>
      <path d="m6 9-1 2-4-2c0-1 0-1 1-2l4 2z" class="fil34"/>
      <path d="m6 9-1 2-4-2V7l5 2z" class="fil34"/>
      <path d="m6 9-1 2-4-2V7l5 2z" class="fil34"/>
      <path d="m6 9-1 2-4-2V7l5 2z" class="fil35"/>
      <path d="m6 9-1 2-4-2V7l5 2z" class="fil35"/>
      <path d="m6 9-1 2-4-2V7l5 2z" class="fil36"/>
      <path d="m6 9-1 2-4-2V7l5 2z" class="fil36"/>
      <path d="m6 9-1 2-4-2V7l5 2z" class="fil36"/>
      <path d="m6 9-1 2-4-2V7l5 2z" class="fil37"/>
      <path d="m6 9-1 2-4-2V7l5 2z" class="fil37"/>
      <path d="m6 9-1 2-4-2V7l5 2z" class="fil37"/>
      <path d="m6 9-1 2-4-2V7l5 2z" class="fil38"/>
      <path d="m6 9-1 2-4-2V7l5 2z" class="fil38"/>
      <path d="m6 9-1 2-4-2V7l5 2z" class="fil39"/>
      <path d="m6 9-1 2-4-2V8l5 1z" class="fil39"/>
      <path d="m6 9-1 2-4-2V8l5 1z" class="fil39"/>
      <path d="M5 9v2L1 9V8l4 1z" class="fil40"/>
      <path d="M5 10v1L1 9V8l4 2z" class="fil40"/>
      <path d="M5 10v1L1 9V8l4 2z" class="fil41"/>
      <path d="M5 10v1L1 9V8l4 2z" class="fil41"/>
      <path d="M5 10v1L1 9V8l4 2z" class="fil41"/>
      <path d="M5 10v1L1 9V8l4 2z" class="fil42"/>
      <path d="M5 10v1L1 9V8l4 2z" class="fil42"/>
      <path d="m1 9 4 1-1 2-4-1c1-1 1-2 1-2z" class="fil33"/>
      <path d="m1 9 3 1v2l-4-1c1-1 1-2 1-2z" class="fil33"/>
      <path d="m1 9 3 1v2l-4-1c1-1 1-2 1-2z" class="fil34"/>
      <path d="m1 9 3 1v2l-4-1c1-1 1-2 1-2z" class="fil34"/>
      <path d="m1 9 3 1v2l-4-1c1-1 1-2 1-2z" class="fil35"/>
      <path d="m1 9 3 1v2l-4-1c1-1 1-2 1-2z" class="fil35"/>
      <path d="m1 9 3 1v2l-4-1c1-1 1-2 1-2z" class="fil35"/>
      <path d="m1 9 3 1v2l-4-1c1-1 1-2 1-2z" class="fil36"/>
      <path d="m1 9 3 1v2l-3-1V9z" class="fil36"/>
      <path d="m1 9 3 1v2l-3-1V9z" class="fil36"/>
      <path d="m1 9 3 1v2l-3-2V9z" class="fil37"/>
      <path d="m1 9 3 1v2l-3-2V9z" class="fil37"/>
      <path d="m1 9 3 1v1l-3-1V9z" class="fil37"/>
      <path d="m1 9 3 1v1l-3-1V9z" class="fil38"/>
      <path d="m1 9 3 1v1l-3-1V9z" class="fil38"/>
      <path d="m1 9 3 1v1l-3-1V9z" class="fil39"/>
      <path d="m1 9 3 1v1l-3-1V9z" class="fil39"/>
      <path d="m1 9 3 1v1l-3-1V9z" class="fil39"/>
      <path d="m1 9 3 1v1l-3-1V9z" class="fil40"/>
      <path d="m1 9 3 1v1l-3-1V9z" class="fil40"/>
      <path d="m1 9 3 1v1l-3-1V9z" class="fil41"/>
      <path d="m1 9 3 1v1l-3-1V9z" class="fil41"/>
      <path d="m1 9 3 1v1l-3-1V9z" class="fil41"/>
      <path d="m1 9 3 1v1l-3-1V9z" class="fil42"/>
      <path d="m1 9 3 1v1l-3-1V9z" class="fil42"/>
      <path d="M10 4 7 5 6 2c1 0 1-1 2-1l2 3z" class="fil29"/>
      <path d="M10 4 7 5 6 2c1 0 1-1 2-1l2 3z" class="fil29"/>
      <path d="M10 4 7 5 6 2c1 0 1-1 2-1l2 3z" class="fil28"/>
      <path d="M10 4 7 5 6 2c1 0 1-1 2-1l2 3z" class="fil28"/>
      <path d="M10 4 7 5 6 2c1 0 1-1 2-1l2 3z" class="fil30"/>
      <path d="M10 4 7 5 6 2c1 0 1-1 2-1l2 3z" class="fil30"/>
      <path d="M10 4 7 5 6 2c1 0 1-1 2-1l2 3z" class="fil30"/>
      <path d="M10 4 7 5 6 2c1 0 1-1 2-1l2 3z" class="fil31"/>
      <path d="M10 4 7 5 6 2c1 0 1-1 2-1l2 3z" class="fil31"/>
      <path d="M10 4 7 5 6 2c1 0 1-1 2-1l2 3z" class="fil31"/>
      <path d="M10 4 7 5 6 2c1 0 1-1 2-1l2 3z" class="fil32"/>
      <path d="M10 4 8 5 6 2c1 0 1-1 2-1l2 3z" class="fil32"/>
      <path d="M9 4 8 5 6 2c1 0 1-1 2-1l1 3z" class="fil33"/>
      <path d="M9 4 8 5 6 2c1 0 1-1 2-1l1 3z" class="fil33"/>
      <path d="M9 4 8 5 6 2c1 0 1-1 2-1l1 3z" class="fil33"/>
      <path d="M9 4 8 5 6 2c1 0 1-1 2-1l1 3z" class="fil34"/>
      <path d="M9 4 8 5 6 2c1 0 1-1 2-1l1 3z" class="fil34"/>
      <path d="M9 4 8 5 6 2c1 0 1-1 2-1l1 3z" class="fil34"/>
      <path d="M9 4 8 5 6 2c1 0 1-1 2-1l1 3z" class="fil35"/>
      <path d="M9 4 8 5 6 2c1 0 1-1 2-1l1 3z" class="fil35"/>
      <path d="M9 4 8 5 6 2c1 0 1-1 2-1l1 3z" class="fil36"/>
      <path d="M9 4 8 5 6 2c1 0 1-1 2-1l1 3z" class="fil36"/>
      <path d="M9 4 8 5 6 2c1 0 1-1 2-1l1 3z" class="fil36"/>
      <path d="M9 4 8 5 7 2s0-1 1-1l1 3z" class="fil37"/>
      <path d="M9 4 8 5 7 2s0-1 1-1l1 3z" class="fil37"/>
      <path d="M9 4 8 5 7 2s0-1 1-1l1 3z" class="fil37"/>
      <path d="M9 4 8 5 7 2s0-1 1-1l1 3z" class="fil38"/>
      <path d="M9 4 8 5 7 2s0-1 1-1l1 3z" class="fil38"/>
      <path d="M9 4 8 5 7 2s0-1 1-1l1 3z" class="fil39"/>
      <path d="M9 4 8 5 7 2s0-1 1-1l1 3z" class="fil39"/>
      <path d="M9 4 8 5 7 2s0-1 1-1l1 3z" class="fil39"/>
      <path d="M9 4 8 5 7 2s0-1 1-1l1 3z" class="fil40"/>
      <path d="M9 4 8 5 7 2s0-1 1-1l1 3z" class="fil40"/>
      <path d="M9 4 8 5 7 2s0-1 1-1l1 3z" class="fil41"/>
      <path d="M9 4 8 5 7 2s0-1 1-1l1 3z" class="fil41"/>
      <path d="M9 4 8 5 7 2s0-1 1-1l1 3z" class="fil41"/>
      <path d="M9 4 8 5 7 2s0-1 1-1l1 3z" class="fil42"/>
      <path d="M9 4 8 5 7 2s0-1 1-1l1 3z" class="fil42"/>
      <path d="m112 5-3-1 2-3c1 0 2 1 3 1l-2 3z" class="fil43"/>
      <path d="m111 5-2-1 2-3c1 0 2 1 3 1l-3 3z" class="fil43"/>
      <path d="m111 5-2-1 2-3c1 0 2 1 2 1l-2 3z" class="fil44"/>
      <path d="m111 5-2-1 2-3c1 0 2 1 2 1l-2 3z" class="fil44"/>
      <path d="m111 5-1-1 1-3c1 0 2 1 2 1l-2 3z" class="fil44"/>
      <path d="m111 5-1-1 1-3c1 0 1 1 2 1l-2 3z" class="fil45"/>
      <path d="m111 5-1-1 1-3c1 0 1 1 2 1l-2 3z" class="fil45"/>
      <path d="m111 5-1-1 2-3s0 1 1 1l-2 3z" class="fil45"/>
      <path d="m111 5-1-1 2-3s0 1 1 1l-2 3z" class="fil46"/>
      <path d="m111 5-1-1 2-3v1l-1 3z" class="fil46"/>
      <path d="m115 8-2-2 3-2c1 1 1 2 2 3l-3 1z" class="fil43"/>
      <path d="m115 8-2-2 3-2c1 1 1 2 2 3l-3 1z" class="fil43"/>
      <path d="m115 8-2-2 3-2c1 1 1 2 2 3l-3 1z" class="fil47"/>
      <path d="m115 8-2-2 3-2c1 1 1 2 2 3l-3 1z" class="fil47"/>
      <path d="m115 8-2-2 3-2c1 1 1 2 2 3l-3 1z" class="fil48"/>
      <path d="m115 8-2-2 3-1c1 0 1 1 2 2l-3 1z" class="fil48"/>
      <path d="m115 8-2-2 3-1c1 0 1 1 2 2l-3 1z" class="fil48"/>
      <path d="m115 8-2-2 3-1c1 0 1 1 2 2l-3 1z" class="fil49"/>
      <path d="m115 8-2-2 3-1c1 0 1 1 2 2l-3 1z" class="fil49"/>
      <path d="m115 8-2-2 3-1c1 0 1 1 2 2l-3 1z" class="fil49"/>
      <path d="m115 8-2-2 3-1c1 0 1 1 2 2l-3 1z" class="fil50"/>
      <path d="m115 8-2-2 3-1c1 0 1 1 2 2l-3 1z" class="fil50"/>
      <path d="m115 8-2-2 3-1c1 0 1 1 2 2l-3 1z" class="fil51"/>
      <path d="m115 8-2-2 3-1c1 0 1 1 2 2l-3 1z" class="fil51"/>
      <path d="m115 8-1-2 2-1c1 0 1 1 2 2l-3 1z" class="fil51"/>
      <path d="m115 8-1-1 2-2c1 0 1 1 2 2l-3 1z" class="fil52"/>
      <path d="m115 8-1-1 2-2c1 0 1 1 2 2l-3 1z" class="fil52"/>
      <path d="m115 8-1-1 2-2 2 2-3 1z" class="fil52"/>
      <path d="m115 8-1-1 2-2 2 2-3 1z" class="fil53"/>
      <path d="m115 8-1-1 3-2c0 1 0 1 1 2l-3 1z" class="fil53"/>
      <path d="m115 8-1-1 3-2c0 1 0 1 1 2l-3 1z" class="fil54"/>
      <path d="m115 8-1-1 3-2c0 1 0 1 1 2l-3 1z" class="fil54"/>
      <path d="m115 8-1-1 3-2c0 1 0 1 1 2l-3 1z" class="fil54"/>
      <path d="m115 8-1-1 3-2c0 1 0 1 1 2l-3 1z" class="fil55"/>
      <path d="m115 8-1-1 3-2c0 1 0 1 1 2l-3 1z" class="fil55"/>
      <path d="m115 8-1-1 3-2c0 1 0 1 1 2l-3 1z" class="fil56"/>
      <path d="m115 8-1-1 3-2c0 1 0 1 1 2l-3 1z" class="fil56"/>
      <path d="m115 8-1-1 3-2c0 1 0 1 1 2l-3 1z" class="fil56"/>
      <path d="m115 8-1-1 3-2c0 1 0 1 1 2l-3 1z" class="fil57"/>
      <path d="m115 8-1-1 3-2c0 1 0 1 1 2l-3 1z" class="fil57"/>
      <path d="m115 199 1-2h3c0 1-1 2-1 3l-3-1z" class="fil26"/>
      <path d="m115 199 1-2h3c0 1-1 2-1 3l-3-1z" class="fil26"/>
      <path d="m115 199 1-2h3c0 1-1 2-1 3l-3-1z" class="fil26"/>
      <path d="m115 199 1-2h3c0 1-1 2-1 3l-3-1z" class="fil26"/>
      <path d="m115 199 1-2h3c0 1-1 2-1 3l-3-1z" class="fil26"/>
      <path d="m115 199 1-2h3c0 1-1 2-1 3l-3-1z" class="fil26"/>
      <path d="m115 199 1-2h3c0 1-1 2-1 3l-3-1z" class="fil25"/>
      <path d="m115 199 1-2h3c0 1-1 2-1 3l-3-1z" class="fil24"/>
      <path d="m115 199 1-2h3c0 1-1 2-1 3l-3-1z" class="fil24"/>
      <path d="m115 199 1-2h3c0 1-1 2-1 3l-3-1z" class="fil24"/>
      <path d="m115 199 1-2h3c0 1-1 2-1 3l-3-1z" class="fil5"/>
      <path d="m115 199 1-2h3c0 1-1 2-1 3l-3-1z" class="fil5"/>
      <path d="m115 199 1-2h3c0 1-1 2-1 3l-3-1z" class="fil6"/>
      <path d="m115 199 1-2h3c0 1-1 2-1 3l-3-1z" class="fil6"/>
      <path d="m115 199 1-2h3c0 1-1 2-1 3l-3-1z" class="fil6"/>
      <path d="m115 199 1-2h3c0 1-1 2-1 3l-3-1z" class="fil7"/>
      <path d="m115 199 1-2h3c0 1-1 2-1 3l-3-1z" class="fil7"/>
      <path d="m115 199 1-2h3c0 1-1 2-1 3l-3-1z" class="fil7"/>
      <path d="m115 199 1-2h3c0 1-1 2-1 3l-3-1z" class="fil8"/>
      <path d="m115 199 1-2 3 1s-1 1-1 2l-3-1z" class="fil8"/>
      <path d="m115 199 1-2 3 1s-1 1-1 2l-3-1z" class="fil9"/>
      <path d="m115 199 1-2 3 1s-1 1-1 2l-3-1z" class="fil9"/>
      <path d="m115 199 1-2 3 1s-1 1-1 2l-3-1z" class="fil9"/>
      <path d="m115 199 1-2 3 1s-1 1-1 2l-3-1z" class="fil10"/>
      <path d="m115 199 1-2 3 1c-1 0-1 1-1 2l-3-1z" class="fil10"/>
      <path d="m115 199 1-2 3 1c-1 0-1 1-1 2l-3-1z" class="fil11"/>
      <path d="m115 199 1-2 3 1c-1 0-1 1-1 2l-3-1z" class="fil11"/>
      <path d="m115 199 1-2 3 1c-1 0-1 1-1 2l-3-1z" class="fil11"/>
      <path d="m115 199 1-2 3 1c-1 0-1 1-1 2l-3-1z" class="fil12"/>
      <path d="M115 199v-2l4 1c-1 0-1 1-1 2l-3-1z" class="fil12"/>
      <path d="M115 199v-2l4 1c-1 0-1 1-1 2l-3-1z" class="fil12"/>
      <path d="M115 199v-2l4 1c-1 1-1 1-1 2l-3-1z" class="fil13"/>
      <path d="M115 199v-2l4 1c-1 1-1 1-1 2l-3-1z" class="fil13"/>
      <path d="M115 199v-2l4 1c-1 1-1 1-1 2l-3-1z" class="fil14"/>
      <path d="M115 199v-2l4 1c-1 1-1 1-1 2l-3-1z" class="fil14"/>
      <path d="M115 199v-2l4 1c-1 1-1 1-1 2l-3-1z" class="fil14"/>
      <path d="M115 199v-2l4 1c-1 1-1 1-1 2l-3-1z" class="fil15"/>
      <path d="M115 199v-2l4 1c-1 1-1 1-1 2l-3-1z" class="fil15"/>
      <path d="M115 199v-2l4 1c-1 1-1 1-1 2l-3-1z" class="fil16"/>
      <path d="M115 199v-2l4 1c-1 1-1 1-1 2l-3-1z" class="fil16"/>
      <path d="M115 199v-2l4 1c-1 1-1 1-1 2l-3-1z" class="fil16"/>
      <path d="M115 199v-2l4 1c-1 1-1 1-1 2l-3-1z" class="fil17"/>
      <path d="M115 199v-2l4 1c-1 1-1 1-1 2l-3-1z" class="fil17"/>
      <path d="M115 199v-2l4 1c-1 1-1 1-1 2l-3-1z" class="fil17"/>
      <path d="M115 199v-2l4 1c-1 1-1 1-1 2l-3-1z" class="fil18"/>
      <path d="M115 199v-2l4 1c-1 1-1 1-1 2l-3-1z" class="fil18"/>
      <path d="M115 199v-2l3 1v2l-3-1z" class="fil19"/>
      <path d="M115 199v-2l3 1v2l-3-1z" class="fil19"/>
      <path d="m118 8-3 2-1-3 3-1c1 1 1 1 1 2z" class="fil58"/>
      <path d="m118 8-3 2-1-3 3-1c1 1 1 1 1 2z" class="fil58"/>
      <path d="m118 8-3 2-1-3 3-1c1 1 1 1 1 2z" class="fil59"/>
      <path d="m118 8-3 2-1-3 3-1c1 1 1 1 1 2z" class="fil59"/>
      <path d="m118 8-3 1-1-2 3-1c1 1 1 1 1 2z" class="fil60"/>
      <path d="m118 8-3 1-1-2 3-1c1 1 1 1 1 2z" class="fil60"/>
      <path d="m118 8-3 1-1-2 3-1c1 1 1 1 1 2z" class="fil60"/>
      <path d="m118 8-3 1-1-2 3-1c1 1 1 1 1 2z" class="fil61"/>
      <path d="m118 8-3 1-1-2 3-1c1 1 1 1 1 2z" class="fil61"/>
      <path d="m118 8-3 1-1-2 3-1c1 1 1 1 1 2z" class="fil62"/>
      <path d="m118 8-3 1-1-2 3-1c1 1 1 1 1 2z" class="fil62"/>
      <path d="m118 8-3 1-1-2 3-1c1 1 1 1 1 2z" class="fil62"/>
      <path d="m118 8-3 1-1-2 3-1c1 1 1 1 1 2z" class="fil63"/>
      <path d="m118 8-3 1-1-2 3-1c1 1 1 1 1 2z" class="fil63"/>
      <path d="m118 8-3 1-1-2 3-1c1 1 1 1 1 2z" class="fil63"/>
      <path d="m118 8-3 1-1-2 3-1c0 1 1 1 1 2z" class="fil64"/>
      <path d="m118 8-3 1-1-2 3-1c0 1 1 1 1 2z" class="fil64"/>
      <path d="m118 8-3 1-1-2 3-1c0 1 1 1 1 2z" class="fil65"/>
      <path d="m118 8-3 1-1-2 3-1c0 1 1 1 1 2z" class="fil65"/>
      <path d="m118 8-3 1-1-2 3-1c0 1 1 1 1 2z" class="fil65"/>
      <path d="m118 8-3 1-1-2 3-1c0 1 1 1 1 2z" class="fil46"/>
      <path d="m118 8-3 1-1-2 3-1c0 1 1 1 1 2z" class="fil46"/>
      <path d="m118 8-3 1-1-2 3-1c0 1 1 1 1 2z" class="fil46"/>
      <path d="m118 8-3 1-1-2 3-1c0 1 1 1 1 2z" class="fil45"/>
      <path d="m118 8-3 1-1-2 3-1c0 1 1 1 1 2z" class="fil45"/>
      <path d="m118 8-3 1-1-2 3-1c0 1 1 1 1 2z" class="fil44"/>
      <path d="m118 8-3 1-1-2 3-1s1 1 1 2z" class="fil44"/>
      <path d="m118 7-3 2-1-2 3-1 1 1z" class="fil44"/>
      <path d="m118 7-3 2-1-2 3-1 1 1z" class="fil43"/>
      <path d="m118 7-3 2-1-2 3-1 1 1z" class="fil43"/>
      <path d="m118 7-3 2-1-2 3-1 1 1z" class="fil47"/>
      <path d="m118 7-3 2-1-2 3-1 1 1z" class="fil47"/>
      <path d="m118 7-3 2-1-2 3-1 1 1z" class="fil47"/>
      <path d="m118 7-3 2-1-2 3-1 1 1z" class="fil48"/>
      <path d="m118 7-3 2-1-2 3-1 1 1z" class="fil48"/>
      <path d="m118 7-3 2-1-2 3-1 1 1z" class="fil49"/>
      <path d="m118 7-3 2-1-2 3-1 1 1z" class="fil49"/>
      <path d="m118 7-3 2-1-2 3-1 1 1z" class="fil49"/>
      <path d="m118 7-3 2-1-2 3-1 1 1z" class="fil50"/>
      <path d="m118 7-3 2-1-2 3-1 1 1z" class="fil50"/>
      <path d="m118 7-3 2-1-2 3-1 1 1z" class="fil50"/>
      <path d="m118 7-3 1-1-1 3-1 1 1z" class="fil51"/>
      <path d="m118 7-3 1-1-1 3-1 1 1z" class="fil51"/>
      <path d="m118 7-3 1-1-1 3-1 1 1z" class="fil52"/>
      <path d="m118 7-3 1-1-1 3-1 1 1z" class="fil52"/>
      <path d="m118 7-3 1-1-1 3-1 1 1z" class="fil52"/>
      <path d="m118 7-3 1-1-1 3-1 1 1z" class="fil53"/>
      <path d="m118 7-3 1-1-1 3-1 1 1z" class="fil53"/>
      <path d="m118 7-3 1-1-1 3-1s0 1 1 1z" class="fil54"/>
      <path d="m118 7-3 1-1-1 3-1s0 1 1 1z" class="fil54"/>
      <path d="m118 7-3 1-1-1 3-1s0 1 1 1z" class="fil54"/>
      <path d="m118 7-3 1-1-1 3-1s0 1 1 1z" class="fil55"/>
      <path d="m118 7-3 1-1-1 3-1s0 1 1 1z" class="fil55"/>
      <path d="m118 7-3 1-1-1 3-1s0 1 1 1z" class="fil56"/>
      <path d="m118 7-3 1-1-1 3-1s0 1 1 1z" class="fil56"/>
      <path d="m118 7-4 1V7l3-1 1 1z" class="fil56"/>
      <path d="m118 7-4 1V7l3-1 1 1z" class="fil57"/>
      <path d="m118 7-4 1V7l3-1 1 1z" class="fil57"/>
      <path d="m1 198 3-1 1 4-3 1c-1-1-1-3-1-4z" class="fil66"/>
      <path d="m1 198 3-1 1 4-3 1c-1-1-1-2-1-4z" class="fil66"/>
      <path d="m1 198 3-1 1 4-3 1c-1-1-1-2-1-4z" class="fil67"/>
      <path d="m1 198 3-1 1 4-3 1c-1-1-1-2-1-4z" class="fil67"/>
      <path d="m1 199 3-1 1 3-3 1c-1-1-1-2-1-3z" class="fil67"/>
      <path d="m1 199 3-1 1 3-3 1c0-1-1-2-1-3z" class="fil68"/>
      <path d="m1 199 3-1 1 3-3 1c0-1-1-2-1-3z" class="fil68"/>
      <path d="m1 199 3-1 1 3-3 1c0-1-1-2-1-3z" class="fil69"/>
      <path d="m1 199 3-1 1 3-3 1c0-1-1-2-1-3z" class="fil69"/>
      <path d="m1 199 3-1 1 3-3 1c0-1-1-2-1-3z" class="fil69"/>
      <path d="m1 199 3-1 1 3-3 1c0-1-1-2-1-3z" class="fil70"/>
      <path d="m1 199 3-1 1 3-3 1c0-1-1-2-1-3z" class="fil70"/>
      <path d="m1 199 3-1 1 3-3 1c0-1-1-2-1-3z" class="fil70"/>
      <path d="m1 199 3-1 1 3-3 1c0-1-1-2-1-3z" class="fil71"/>
      <path d="m1 200 3-2 1 3-3 1c0-1-1-2-1-2z" class="fil71"/>
      <path d="m1 200 3-1 1 2-3 1c0-1-1-2-1-2z" class="fil72"/>
      <path d="m1 200 3-1 1 2-3 1c0-1-1-1-1-2z" class="fil72"/>
      <path d="m1 200 3-1 1 2-3 1c0-1-1-1-1-2z" class="fil72"/>
      <path d="m1 200 3-1 1 2-3 1c0-1-1-1-1-2z" class="fil73"/>
      <path d="m1 200 3-1 1 2-3 1c0-1-1-1-1-2z" class="fil73"/>
      <path d="m1 200 3-1 1 2-3 1c0-1 0-1-1-2z" class="fil73"/>
      <path d="m1 200 3-1 1 2-3 1s0-1-1-2z" class="fil74"/>
      <path d="m1 200 3-1 1 2-3 1s0-1-1-2z" class="fil74"/>
      <path d="m1 200 3-1 1 2-3 1s0-1-1-2z" class="fil75"/>
      <path d="m1 200 3-1 1 2-3 1s0-1-1-2z" class="fil75"/>
      <path d="m2 202 3-1 2 2-3 2c0-1-1-2-2-3z" class="fil75"/>
      <path d="m2 202 3-1 2 2-3 2c0-1-1-2-2-3z" class="fil75"/>
      <path d="m2 202 3-1 2 2-3 2c0-1-1-2-2-3z" class="fil74"/>
      <path d="m2 202 3-1 2 2-3 2c0-1-1-2-2-3z" class="fil74"/>
      <path d="m2 202 3-1 2 2-3 2c0-1-1-2-2-3z" class="fil73"/>
      <path d="m2 202 3-1 2 2-3 2c0-1-1-2-2-3z" class="fil73"/>
      <path d="m2 202 3-1 2 2-3 2c0-1-1-2-2-3z" class="fil73"/>
      <path d="m2 202 3-1 2 2-3 2c0-1-1-2-2-3z" class="fil72"/>
      <path d="m2 202 3-1 2 2-3 2c0-1-1-2-2-3z" class="fil72"/>
      <path d="m2 202 3-1 2 2-3 2c0-1-1-2-2-3z" class="fil71"/>
      <path d="m2 202 3-1 2 2-3 2c0-1-1-2-2-3z" class="fil71"/>
      <path d="m2 202 3-1 2 2-3 2c0-1-1-2-2-3z" class="fil71"/>
      <path d="m2 202 3-1 2 2-3 2c0-1-1-2-2-3z" class="fil70"/>
      <path d="m2 202 3-1 2 2-3 2c0-1-1-2-2-3z" class="fil70"/>
      <path d="m2 202 3-1 2 2-3 2c0-1-1-2-2-3z" class="fil70"/>
      <path d="m2 202 3-1 2 2-3 2c0-1-1-2-2-3z" class="fil69"/>
      <path d="m2 202 3-1 2 2-3 2c0-1-1-2-2-3z" class="fil69"/>
      <path d="m3 203 2-2 2 2-3 2c0-1-1-2-1-2z" class="fil68"/>
      <path d="m3 203 2-2 2 2-3 2c0-1-1-2-1-2z" class="fil68"/>
      <path d="m3 203 2-2 2 2-3 2c0-1-1-2-1-2z" class="fil68"/>
      <path d="m3 203 2-2 2 2-3 2c0-1-1-2-1-2z" class="fil67"/>
      <path d="m3 203 2-2 2 2-3 2c0-1-1-2-1-2z" class="fil67"/>
      <path d="m3 203 2-2 2 2-3 2c0-1-1-2-1-2z" class="fil66"/>
      <path d="m3 203 2-2 2 2-3 2c0-1-1-2-1-2z" class="fil66"/>
      <path d="m3 203 2-2 2 2-3 2c0-1-1-2-1-2z" class="fil66"/>
      <path d="m3 203 2-2 2 2-3 2c0-1-1-2-1-2z" class="fil76"/>
      <path d="m3 203 2-2 2 2-3 2c0-1-1-2-1-2z" class="fil76"/>
      <path d="m3 203 2-2 2 2-3 2c0-1-1-2-1-2z" class="fil77"/>
      <path d="m3 203 2-2 2 2-2 2c-1-1-2-1-2-2z" class="fil77"/>
      <path d="m3 203 2-2 2 2-2 2c-1-1-2-1-2-2z" class="fil77"/>
      <path d="m3 203 2-2 2 2-2 2c-1-1-2-1-2-2z" class="fil78"/>
      <path d="m3 203 2-2 2 2-2 2c-1-1-2-1-2-2z" class="fil78"/>
      <path d="m3 203 2-2 2 2-2 2c-1-1-2-1-2-2z" class="fil78"/>
      <path d="m3 203 2-2 2 2-2 2c-1-1-2-1-2-2z" class="fil79"/>
      <path d="m3 203 2-2 2 2-2 2c-1-1-2-1-2-2z" class="fil79"/>
      <path d="m3 203 2-2 2 2-2 2c-1-1-2-1-2-2z" class="fil80"/>
      <path d="m3 203 2-2 2 2-2 2c-1-1-2-1-2-2z" class="fil80"/>
      <path d="m3 203 2-2 2 2-2 2c-1-1-2-1-2-2z" class="fil80"/>
      <path d="m3 203 2-2 2 2-2 2c-1-1-2-1-2-2z" class="fil23"/>
      <path d="m3 203 2-2 2 2-2 2c-1-1-2-1-2-2z" class="fil23"/>
      <path d="m3 203 2-2 2 2-2 2c-1-1-2-1-2-2z" class="fil22"/>
      <path d="m3 203 2-2 2 2-2 2c-1-1-2-1-2-2z" class="fil22"/>
      <path d="m3 203 3-2 1 2-2 2c-1-1-2-1-2-2z" class="fil22"/>
      <path d="m3 203 3-2 1 2-2 2c-1-1-2-1-2-2z" class="fil21"/>
      <path d="m3 203 3-2 1 2-2 2c-1-1-2-1-2-2z" class="fil21"/>
      <path d="m3 203 3-2 1 2-2 2c-1-1-2-1-2-2z" class="fil20"/>
      <path d="m3 203 3-2 1 2-2 2-2-2z" class="fil20"/>
      <path d="m3 203 3-2 1 2-2 2-2-2z" class="fil20"/>
      <path d="m3 203 3-2 1 2-2 2-2-2z" class="fil19"/>
      <path d="m3 203 3-1 1 1-2 2-2-2z" class="fil19"/>
      <path d="m3 203 3-1 1 1-2 2-2-2z" class="fil19"/>
      <path d="m3 203 3-1 1 1-2 2-2-2z" class="fil18"/>
      <path d="m3 203 3-1 1 1-2 2-2-2z" class="fil18"/>
      <path d="m3 203 3-1 1 1-2 2-2-2z" class="fil17"/>
      <path d="m3 203 3-1 1 1-2 2-2-2z" class="fil17"/>
      <path d="m3 203 3-1 1 1-2 2-2-2z" class="fil17"/>
      <path d="m3 204 3-2 1 1-2 2c-1-1-1-1-2-1z" class="fil16"/>
      <path d="m3 204 3-2 1 1-2 2c-1-1-1-1-2-1z" class="fil16"/>
      <path d="m3 204 3-2 1 1-2 2c-1-1-1-1-2-1z" class="fil15"/>
      <path d="m3 204 3-2 1 1-2 2c-1-1-1-1-2-1z" class="fil15"/>
      <path d="m3 204 3-2 1 1-2 2c-1-1-1-1-2-1z" class="fil15"/>
      <path d="m3 204 3-2 1 1-2 2c-1-1-1-1-2-1z" class="fil14"/>
      <path d="m3 204 3-2 1 1-2 2c-1-1-1-1-2-1z" class="fil14"/>
      <path d="m3 204 3-2 1 1-2 2c-1-1-1-1-2-1z" class="fil13"/>
      <path d="m3 204 3-2 1 1-2 2c-1-1-1-1-2-1z" class="fil13"/>
      <path d="m3 204 3-2 1 1-2 2c-1 0-1-1-2-1z" class="fil13"/>
      <path d="m3 204 3-2 1 1-2 2c-1 0-1-1-2-1z" class="fil12"/>
      <path d="m4 204 2-2 1 1-2 2c-1 0-1-1-1-1z" class="fil12"/>
      <path d="m4 204 2-2 1 1-2 2c-1 0-1-1-1-1z" class="fil12"/>
      <path d="m4 204 2-2 1 1-2 2c-1 0-1-1-1-1z" class="fil11"/>
      <path d="m4 204 2-2 1 1-2 2c-1 0-1-1-1-1z" class="fil11"/>
      <path d="m4 204 2-2 1 1-2 2c-1 0-1-1-1-1z" class="fil10"/>
      <path d="m4 204 2-2 1 1-2 2c-1 0-1-1-1-1z" class="fil10"/>
      <path d="m4 204 2-2 1 1-2 2c-1 0-1-1-1-1z" class="fil10"/>
      <path d="m4 204 2-2 1 1-2 2c-1 0-1-1-1-1z" class="fil9"/>
      <path d="m4 204 2-2 1 1-2 2c-1 0-1-1-1-1z" class="fil9"/>
      <path d="m4 204 2-2 1 1-2 2c-1 0-1-1-1-1z" class="fil8"/>
      <path d="m4 204 2-2 1 1-2 2c-1 0-1-1-1-1z" class="fil8"/>
      <path d="m4 204 2-2 1 1-2 2c-1 0-1-1-1-1z" class="fil8"/>
      <path d="m4 204 2-2 1 1-2 2c-1 0-1-1-1-1z" class="fil7"/>
      <path d="m4 204 2-2 1 1-2 2c-1 0-1-1-1-1z" class="fil7"/>
      <path d="m4 204 2-2 1 1-2 2c-1 0-1-1-1-1z" class="fil6"/>
      <path d="m4 204 2-2 1 1-2 2c-1 0-1-1-1-1z" class="fil6"/>
      <path d="m4 204 2-2 1 1-2 2c-1 0-1-1-1-1z" class="fil6"/>
      <path d="m4 204 2-2 1 1-2 2c-1 0-1-1-1-1z" class="fil5"/>
      <path d="m4 204 2-2 1 1-2 2c-1 0-1-1-1-1z" class="fil5"/>
      <path d="m4 204 2-2 1 1-2 2c-1 0-1-1-1-1z" class="fil5"/>
      <path d="m4 204 2-2 1 1-2 2c-1 0-1-1-1-1z" class="fil24"/>
      <path d="m4 204 2-2 1 1-2 2c-1 0-1 0-1-1z" class="fil24"/>
      <path d="m4 204 2-2 1 1-2 2c-1 0-1 0-1-1z" class="fil25"/>
      <path d="m4 204 2-2 1 1-2 2c-1 0-1 0-1-1z" class="fil26"/>
      <path d="m7 203 2 1v3c-1 0-3-1-4-2l2-2z" class="fil14"/>
      <path d="m7 203 2 1v3c-1 0-3-1-4-2l2-2z" class="fil14"/>
      <path d="m7 203 2 1v3c-2 0-3-1-4-2l2-2z" class="fil13"/>
      <path d="m7 203 2 1v3c-2 0-3-1-4-2l2-2z" class="fil13"/>
      <path d="m7 203 2 1v3c-2 0-3-1-4-2l2-2z" class="fil12"/>
      <path d="m7 203 2 1v3c-2 0-3-1-4-2l2-2z" class="fil12"/>
      <path d="m7 203 2 1-1 3c-1 0-2-1-3-2l2-2z" class="fil12"/>
      <path d="m7 203 2 1-1 3c-1 0-2-1-3-2l2-2z" class="fil11"/>
      <path d="m7 203 2 1-1 3c-1 0-2-1-3-2l2-2z" class="fil11"/>
      <path d="m7 203 2 1-1 3c-1-1-2-1-3-2l2-2z" class="fil11"/>
      <path d="m7 203 2 1-1 3c-1-1-2-1-3-2l2-2z" class="fil10"/>
      <path d="m7 203 2 1-1 3c-1-1-2-1-3-2l2-2z" class="fil10"/>
      <path d="m7 203 2 1-1 3c-1-1-2-1-3-2l2-2z" class="fil9"/>
      <path d="m7 203 2 1-1 3c-1-1-2-1-3-2l2-2z" class="fil9"/>
      <path d="m7 203 2 1-1 3c-1-1-2-1-3-2l2-2z" class="fil9"/>
      <path d="m7 203 2 1-1 3c-1-1-2-1-3-2l2-2z" class="fil8"/>
      <path d="m7 203 2 1-1 3c-2-1-2-1-3-2l2-2z" class="fil8"/>
      <path d="m7 203 2 1-2 3-2-2 2-2z" class="fil8"/>
      <path d="m7 203 2 1-2 3c-1-1-2-1-2-2l2-2z" class="fil7"/>
      <path d="m7 203 2 1-2 3c-1-1-2-1-2-2l2-2z" class="fil7"/>
      <path d="m7 203 1 1-1 2c-1 0-2 0-2-1l2-2z" class="fil6"/>
      <path d="m7 203 1 1-1 2c-1 0-2-1-2-1l2-2z" class="fil6"/>
      <path d="m7 203 1 1-1 2c-1 0-2-1-2-1l2-2z" class="fil6"/>
      <path d="m7 203 1 1-1 2c-1 0-2-1-2-1l2-2z" class="fil5"/>
      <path d="m7 203 1 1-1 2c-1 0-2-1-2-1l2-2z" class="fil5"/>
      <path d="m7 203 1 1-1 2c-1 0-2-1-2-1l2-2z" class="fil24"/>
      <path d="m7 203 1 1-1 2c-1 0-2-1-2-1l2-2z" class="fil24"/>
      <path d="m7 203 1 1-1 2c-1 0-2-1-3-1l3-2z" class="fil24"/>
      <path d="m7 203 1 1-2 2s-1-1-2-1l3-2z" class="fil25"/>
      <path d="m7 203 1 1-2 2s-1-1-2-1l3-2z" class="fil26"/>
      <path d="M12 6c-4 0-6 2-6 6v185c0 3 2 6 6 6h96c3 0 5-3 5-6V12c0-4-2-6-5-6H12z" class="fil81"/>
      <path d="M0 12v184c0 3 2 6 4 8V11H0v1z" class="fil0"/>
      <path d="M13 1C6 1 1 6 1 13v182c0 7 5 12 12 12h93c7 0 12-5 12-12V13c0-7-5-12-12-12H13z" class="fil1"/>
      <path d="M108 0H11C5 0 0 5 0 12v184c0 6 4 10 9 12h101c5-1 8-5 9-10V10c-1-5-5-10-11-10z" class="fil2"/>
      <path d="M115 204H4c2 2 5 4 8 4h95c3 0 6-2 8-4z" class="fil3"/>
      <path d="M115 7v197c2-2 4-5 4-8V12c0-2-1-3-1-5h-3z" class="fil4"/>
      <path d="m108 208-1-4h4v3c-1 0-2 0-3 1z" class="fil5"/>
      <path d="m108 208-1-4h4v3c-1 0-2 0-3 1z" class="fil5"/>
      <path d="m108 208-1-4h4v3c-1 0-2 0-3 1z" class="fil6"/>
      <path d="m108 208-1-4h4v3c-1 0-2 0-3 1z" class="fil6"/>
      <path d="m108 208-1-4h4v3c-1 0-2 0-3 1z" class="fil6"/>
      <path d="m108 208-1-4h4v3c-1 0-2 0-3 1z" class="fil7"/>
      <path d="m108 208-1-4h4v3c-1 0-2 0-3 1z" class="fil7"/>
      <path d="M108 208v-4h3v3c-1 0-2 0-3 1z" class="fil8"/>
      <path d="M108 208v-4h3v3c-1 0-2 0-3 1z" class="fil8"/>
      <path d="M108 208v-4h3v3c-1 0-2 0-3 1z" class="fil8"/>
      <path d="M108 207v-3h3v3h-3z" class="fil9"/>
      <path d="M108 207v-3h3v3h-3z" class="fil9"/>
      <path d="M108 207v-3h3v3h-3z" class="fil10"/>
      <path d="M108 207v-3h3v3h-3z" class="fil10"/>
      <path d="M108 207v-3h3v3h-3z" class="fil10"/>
      <path d="M108 207v-3h3v3h-3z" class="fil11"/>
      <path d="M108 207v-3h3v3h-3z" class="fil11"/>
      <path d="M108 207v-3h3v3h-3z" class="fil11"/>
      <path d="M108 207v-3h3v3h-3z" class="fil12"/>
      <path d="m109 207-1-3h3v3h-2z" class="fil12"/>
      <path d="m109 207-1-3h3v3h-2z" class="fil13"/>
      <path d="m109 207-1-3h3v3h-2z" class="fil13"/>
      <path d="m109 207-1-3h3v3h-2z" class="fil13"/>
      <path d="m109 207-1-3h3v3h-2z" class="fil14"/>
      <path d="m109 207-1-3h3v3h-2z" class="fil14"/>
      <path d="m109 207-1-3h3v3h-2z" class="fil15"/>
      <path d="m109 207-1-3h3v3h-2z" class="fil15"/>
      <path d="M109 207v-3h2v3h-2z" class="fil15"/>
      <path d="M109 207v-3h2v3h-2z" class="fil16"/>
      <path d="M109 207v-3h2v3h-2z" class="fil16"/>
      <path d="M109 207v-3h2v3h-2z" class="fil16"/>
      <path d="M109 207v-3h2v3h-2z" class="fil17"/>
      <path d="M109 207v-3h2v3h-2z" class="fil17"/>
      <path d="M109 207v-3h2v3h-2z" class="fil18"/>
      <path d="M109 207v-3h2v3h-2z" class="fil18"/>
      <path d="M109 207v-3h2v3h-2z" class="fil18"/>
      <path d="M109 207v-3h2v3h-2z" class="fil19"/>
      <path d="M109 207v-3h2v3h-2z" class="fil19"/>
      <path d="M109 207v-3h2v3h-2z" class="fil20"/>
      <path d="m110 207-1-3h2v3h-1z" class="fil20"/>
      <path d="m110 207-1-3h2v3h-1z" class="fil20"/>
      <path d="m110 207-1-3h2v3h-1z" class="fil21"/>
      <path d="m110 207-1-3h2v3h-1z" class="fil21"/>
      <path d="m110 207-1-3h2v3h-1z" class="fil21"/>
      <path d="m110 207-1-3h2v3h-1z" class="fil22"/>
      <path d="m110 207-1-3h2v3h-1z" class="fil22"/>
      <path d="M110 207v-3h1v3h-1z" class="fil23"/>
      <path d="M110 207v-3h1v3h-1z" class="fil23"/>
      <path d="m110 207-1-3 3-1 1 3c-1 0-2 1-3 1z" class="fil23"/>
      <path d="m110 207-1-3 3-1 1 3c-1 0-2 1-3 1z" class="fil23"/>
      <path d="m110 207-1-3 3-1 1 3c-1 0-2 1-3 1z" class="fil22"/>
      <path d="m110 207-1-3 3-1 1 3c-1 0-2 1-3 1z" class="fil22"/>
      <path d="m110 207-1-3 3-1 1 3s-1 1-3 1z" class="fil21"/>
      <path d="m111 207-1-3 2-1 1 3s-1 1-2 1z" class="fil21"/>
      <path d="m111 207-1-3 2-1 1 3s-1 1-2 1z" class="fil21"/>
      <path d="m111 207-1-3 2-1 1 3s-1 1-2 1z" class="fil20"/>
      <path d="m111 207-1-3 2-1 1 3s-1 1-2 1z" class="fil20"/>
      <path d="m111 207-1-3 2-1 1 3s-1 1-2 1z" class="fil19"/>
      <path d="m111 207-1-3 2-1 1 3s-1 1-2 1z" class="fil19"/>
      <path d="m111 207-1-3 2-1 1 3s-1 1-2 1z" class="fil19"/>
      <path d="m111 207-1-3 2-1 1 3s-1 1-2 1z" class="fil18"/>
      <path d="m111 207-1-3 2-1 1 3s-1 1-2 1z" class="fil18"/>
      <path d="m111 207-1-3 2-1 1 3s-1 1-2 1z" class="fil18"/>
      <path d="m111 207-1-3 2-1 1 3s-1 1-2 1z" class="fil17"/>
      <path d="m111 207-1-3 2-1 1 3s-1 1-2 1z" class="fil17"/>
      <path d="m111 207-1-3 2-1 1 3s-1 1-2 1z" class="fil16"/>
      <path d="m111 207-1-3 2-1 1 3s-1 0-2 1z" class="fil16"/>
      <path d="m111 207-1-3 2-1 1 3s-1 0-2 1z" class="fil16"/>
      <path d="m111 207-1-3 2-1 1 3s-1 0-2 1z" class="fil15"/>
      <path d="m112 207-2-3 2-1 1 3s-1 0-1 1z" class="fil15"/>
      <path d="m112 207-2-3 2-1 1 3s-1 0-1 1z" class="fil14"/>
      <path d="m112 207-2-3 2-1 1 3s-1 0-1 1z" class="fil14"/>
      <path d="m112 207-1-3 1-1 1 3s-1 0-1 1z" class="fil14"/>
      <path d="m112 207-1-3 1-1 1 3s-1 0-1 1z" class="fil13"/>
      <path d="m112 207-1-3 1-1 1 3s-1 0-1 1z" class="fil13"/>
      <path d="m112 207-1-3 1-1 1 3s-1 0-1 1z" class="fil12"/>
      <path d="m112 207-1-3 1-1 1 3s-1 0-1 1z" class="fil12"/>
      <path d="m112 206-1-2 1-1 1 3h-1z" class="fil12"/>
      <path d="m112 206-1-2 1-1 1 3h-1z" class="fil11"/>
      <path d="m112 206-1-2 1-1 1 3h-1z" class="fil11"/>
      <path d="m113 206-2-2 3-3 2 2-3 3z" class="fil11"/>
      <path d="m113 206-2-3 3-2 2 2-3 3z" class="fil11"/>
      <path d="m113 206-1-3 2-2 2 2c-1 1-1 2-3 3z" class="fil10"/>
      <path d="m114 206-2-3 2-2 2 2c-1 1-1 2-2 3z" class="fil10"/>
      <path d="m114 206-2-3 2-2 2 2c0 1-1 2-2 3z" class="fil9"/>
      <path d="m114 206-2-3 2-2 2 2c0 1-1 2-2 3z" class="fil9"/>
      <path d="m114 206-2-3 2-2 2 2c0 1-1 2-2 3z" class="fil9"/>
      <path d="m114 205-2-2 2-2 2 2c0 1-1 2-2 2z" class="fil8"/>
      <path d="m114 205-2-2 2-2 2 2c0 1-1 2-2 2z" class="fil8"/>
      <path d="m114 205-2-2 2-2 2 2c0 1-1 2-2 2z" class="fil7"/>
      <path d="m114 205-2-2 2-2 2 2c0 1-1 2-2 2z" class="fil7"/>
      <path d="m114 205-2-2 2-2 2 2c0 1-1 2-2 2z" class="fil7"/>
      <path d="m114 205-2-2 2-2 2 2c0 1-1 2-2 2z" class="fil6"/>
      <path d="m114 205-2-2 2-2 2 2c0 1-1 2-2 2z" class="fil6"/>
      <path d="m114 205-2-2 2-2 2 2c0 1-1 1-2 2z" class="fil6"/>
      <path d="m114 205-2-2 2-2 2 2c0 1-1 1-2 2z" class="fil5"/>
      <path d="m115 205-2-2 1-2 2 2c0 1-1 1-1 2z" class="fil5"/>
      <path d="m115 205-2-2 1-3 2 3c0 1-1 1-1 2z" class="fil24"/>
      <path d="m115 205-2-3 1-2 2 3c0 1-1 1-1 2z" class="fil24"/>
      <path d="m115 205-2-3 1-2 3 3c-1 1-2 1-2 2z" class="fil24"/>
      <path d="m115 205-2-3 1-2 3 3c-1 1-2 1-2 2z" class="fil25"/>
      <path d="m115 205-2-3 1-2 3 3c-1 1-2 1-2 2z" class="fil26"/>
      <path d="m115 205-2-3 1-2 3 3c-1 0-1 1-2 2z" class="fil26"/>
      <path d="m115 205-2-3 1-2 3 3c-1 0-1 1-2 2z" class="fil26"/>
      <path d="m115 204-2-2 1-2 3 3c-1 0-1 1-2 1z" class="fil26"/>
      <path d="m115 204-2-2 1-2 3 3c-1 0-1 1-2 1z" class="fil26"/>
      <path d="m115 204-2-2 1-2 3 3c-1 0-1 1-2 1z" class="fil26"/>
      <path d="m116 203-2-2 2-3 2 2c0 1-1 2-2 3z" class="fil26"/>
      <path d="m116 203-2-2 2-3 2 2c0 1-1 2-2 3z" class="fil26"/>
      <path d="m116 203-2-2 2-3 2 2c0 1-1 2-2 3z" class="fil26"/>
      <path d="m116 203-2-2 2-3 2 2c0 1-1 2-2 3z" class="fil26"/>
      <path d="m116 203-2-2 2-3 2 2c0 1-1 2-2 3z" class="fil26"/>
      <path d="m116 203-2-2 2-3 2 2c0 1-1 2-2 3z" class="fil26"/>
      <path d="m116 203-2-2 2-3 2 2c0 1-1 2-2 3z" class="fil25"/>
      <path d="m117 203-3-2 2-3 2 2c0 1-1 2-1 3z" class="fil24"/>
      <path d="m117 203-3-2 2-3 2 2c0 1-1 2-1 3z" class="fil24"/>
      <path d="m117 203-3-2 2-3 2 2c0 1-1 2-1 3z" class="fil24"/>
      <path d="m117 203-3-2 2-3 2 2c0 1-1 2-1 3z" class="fil5"/>
      <path d="m117 203-3-2 2-3 2 2c0 1-1 2-1 3z" class="fil5"/>
      <path d="m117 203-3-2 2-3 2 2c0 1-1 2-1 3z" class="fil6"/>
      <path d="m117 203-3-2 2-3 2 2c0 1-1 2-1 3z" class="fil6"/>
      <path d="m117 203-3-2 2-3 2 2c0 1-1 2-1 3z" class="fil6"/>
      <path d="m117 203-3-2 2-3 2 2c0 1-1 2-1 3z" class="fil7"/>
      <path d="m117 202-3-1 2-3 2 2c0 1-1 2-1 2z" class="fil7"/>
      <path d="m117 202-3-1 2-3 2 2c0 1-1 2-1 2z" class="fil7"/>
      <path d="m117 202-3-2 2-2 2 2c0 1-1 2-1 2z" class="fil8"/>
      <path d="m117 202-3-2 2-2 2 2c0 1-1 2-1 2z" class="fil8"/>
      <path d="m117 202-3-2 2-2 2 2c0 1-1 1-1 2z" class="fil9"/>
      <path d="m117 202-3-2 2-2 2 2c0 1-1 1-1 2z" class="fil9"/>
      <path d="m117 202-3-2 2-2 2 2c0 1-1 1-1 2z" class="fil9"/>
      <path d="m117 202-3-2 2-2 2 2c0 1-1 1-1 2z" class="fil10"/>
      <path d="m117 202-3-2 2-2 2 2c0 1-1 1-1 2z" class="fil10"/>
      <path d="m117 202-3-2 2-2 2 2c0 1-1 1-1 2z" class="fil11"/>
      <path d="m117 202-3-2 2-2 2 2c0 1 0 1-1 2z" class="fil11"/>
      <path d="m117 202-3-2 2-2 2 2s0 1-1 2z" class="fil11"/>
      <path d="m117 202-3-2 2-2 2 2s0 1-1 2z" class="fil12"/>
      <path d="m117 202-3-2 2-2 2 2s0 1-1 2z" class="fil12"/>
      <path d="m117 202-3-2 2-2 2 2s0 1-1 2z" class="fil12"/>
      <path d="m117 202-3-2 2-2 2 2s0 1-1 2z" class="fil13"/>
      <path d="m117 202-2-2 1-2 2 2s0 1-1 2z" class="fil13"/>
      <path d="m117 202-2-2 1-2 2 2s0 1-1 2z" class="fil14"/>
      <path d="m117 202-2-2 1-2 2 2s0 1-1 2z" class="fil14"/>
      <path d="m117 202-2-2 1-2 2 2s0 1-1 2z" class="fil14"/>
      <path d="m117 202-2-2 1-2 2 2s0 1-1 2z" class="fil15"/>
      <path d="m117 202-2-2 1-2 2 2s0 1-1 2z" class="fil15"/>
      <path d="m117 202-2-2 1-2 2 2s0 1-1 2z" class="fil16"/>
      <path d="m117 201-2-1 1-2 2 2s0 1-1 1z" class="fil16"/>
      <path d="m117 201-2-1 1-2 2 2s0 1-1 1z" class="fil16"/>
      <path d="m117 201-2-1 1-2 2 2s0 1-1 1z" class="fil17"/>
      <path d="m117 201-2-1 1-2 2 2s0 1-1 1z" class="fil17"/>
      <path d="m117 201-2-1 1-2 2 2s0 1-1 1z" class="fil17"/>
      <path d="m118 201-3-1 1-2 2 2v1z" class="fil18"/>
      <path d="m118 201-3-1 1-2 2 2v1z" class="fil18"/>
      <path d="m118 201-3-1 1-2 2 2v1z" class="fil19"/>
      <path d="m118 201-3-1 1-2 2 2v1z" class="fil19"/>
      <path d="M107 0H12C8 0 4 3 2 7h116c-2-4-7-7-11-7z" class="fil27"/>
      <path d="M4 8 2 7l1-2s0-1 1-1l2-2 1 3-1 2-2 1z" class="fil28"/>
      <path d="m6 8-1 3-4-2c0-1 0-2 1-3l4 2z" class="fil29"/>
      <path d="m6 8-1 3-4-2c0-1 0-2 1-2l4 1z" class="fil29"/>
      <path d="m6 8-1 3-4-2c0-1 0-2 1-2l4 1z" class="fil28"/>
      <path d="m6 8-1 3-4-2c0-1 0-2 1-2l4 1z" class="fil28"/>
      <path d="m6 8-1 3-4-2c0-1 0-2 1-2l4 1z" class="fil30"/>
      <path d="m6 9-1 2-4-2c0-1 0-2 1-2l4 2z" class="fil30"/>
      <path d="m6 9-1 2-4-2c0-1 0-2 1-2l4 2z" class="fil30"/>
      <path d="m6 9-1 2-4-2c0-1 0-2 1-2l4 2z" class="fil31"/>
      <path d="m6 9-1 2-4-2c0-1 0-2 1-2l4 2z" class="fil31"/>
      <path d="m6 9-1 2-4-2c0-1 0-2 1-2l4 2z" class="fil31"/>
      <path d="m6 9-1 2-4-2c0-1 0-2 1-2l4 2z" class="fil32"/>
      <path d="m6 9-1 2-4-2c0-1 0-2 1-2l4 2z" class="fil32"/>
      <path d="m6 9-1 2-4-2c0-1 0-2 1-2l4 2z" class="fil33"/>
      <path d="m6 9-1 2-4-2c0-1 0-1 1-2l4 2z" class="fil33"/>
      <path d="m6 9-1 2-4-2c0-1 0-1 1-2l4 2z" class="fil33"/>
      <path d="m6 9-1 2-4-2c0-1 0-1 1-2l4 2z" class="fil34"/>
      <path d="m6 9-1 2-4-2V7l5 2z" class="fil34"/>
      <path d="m6 9-1 2-4-2V7l5 2z" class="fil34"/>
      <path d="m6 9-1 2-4-2V7l5 2z" class="fil35"/>
      <path d="m6 9-1 2-4-2V7l5 2z" class="fil35"/>
      <path d="m6 9-1 2-4-2V7l5 2z" class="fil36"/>
      <path d="m6 9-1 2-4-2V7l5 2z" class="fil36"/>
      <path d="m6 9-1 2-4-2V7l5 2z" class="fil36"/>
      <path d="m6 9-1 2-4-2V7l5 2z" class="fil37"/>
      <path d="m6 9-1 2-4-2V7l5 2z" class="fil37"/>
      <path d="m6 9-1 2-4-2V7l5 2z" class="fil37"/>
      <path d="m6 9-1 2-4-2V7l5 2z" class="fil38"/>
      <path d="m6 9-1 2-4-2V7l5 2z" class="fil38"/>
      <path d="m6 9-1 2-4-2V7l5 2z" class="fil39"/>
      <path d="m6 9-1 2-4-2V8l5 1z" class="fil39"/>
      <path d="m6 9-1 2-4-2V8l5 1z" class="fil39"/>
      <path d="M5 9v2L1 9V8l4 1z" class="fil40"/>
      <path d="M5 10v1L1 9V8l4 2z" class="fil40"/>
      <path d="M5 10v1L1 9V8l4 2z" class="fil41"/>
      <path d="M5 10v1L1 9V8l4 2z" class="fil41"/>
      <path d="M5 10v1L1 9V8l4 2z" class="fil41"/>
      <path d="M5 10v1L1 9V8l4 2z" class="fil42"/>
      <path d="M5 10v1L1 9V8l4 2z" class="fil42"/>
      <path d="m1 9 4 1-1 2-4-1c1-1 1-2 1-2z" class="fil33"/>
      <path d="m1 9 3 1v2l-4-1c1-1 1-2 1-2z" class="fil33"/>
      <path d="m1 9 3 1v2l-4-1c1-1 1-2 1-2z" class="fil34"/>
      <path d="m1 9 3 1v2l-4-1c1-1 1-2 1-2z" class="fil34"/>
      <path d="m1 9 3 1v2l-4-1c1-1 1-2 1-2z" class="fil35"/>
      <path d="m1 9 3 1v2l-4-1c1-1 1-2 1-2z" class="fil35"/>
      <path d="m1 9 3 1v2l-4-1c1-1 1-2 1-2z" class="fil35"/>
      <path d="m1 9 3 1v2l-3-1V9z" class="fil36"/>
      <path d="m1 9 3 1v2l-3-1V9z" class="fil36"/>
      <path d="m1 9 3 1v2l-3-1V9z" class="fil36"/>
      <path d="m1 9 3 1v2l-3-2V9z" class="fil37"/>
      <path d="m1 9 3 1v2l-3-2V9z" class="fil37"/>
      <path d="m1 9 3 1v1l-3-1V9z" class="fil37"/>
      <path d="m1 9 3 1v1l-3-1V9z" class="fil38"/>
      <path d="m1 9 3 1v1l-3-1V9z" class="fil38"/>
      <path d="m1 9 3 1v1l-3-1V9z" class="fil39"/>
      <path d="m1 9 3 1v1l-3-1V9z" class="fil39"/>
      <path d="m1 9 3 1v1l-3-1V9z" class="fil39"/>
      <path d="m1 9 3 1v1l-3-1V9z" class="fil40"/>
      <path d="m1 9 3 1v1l-3-1V9z" class="fil40"/>
      <path d="m1 9 3 1v1l-3-1V9z" class="fil41"/>
      <path d="m1 9 3 1v1l-3-1V9z" class="fil41"/>
      <path d="m1 9 3 1v1l-3-1V9z" class="fil41"/>
      <path d="m1 9 3 1v1l-3-1V9z" class="fil42"/>
      <path d="m1 9 3 1v1l-3-1V9z" class="fil42"/>
      <path d="M10 4 7 5 6 2c1 0 1-1 2-1l2 3z" class="fil29"/>
      <path d="M10 4 7 5 6 2c1 0 1-1 2-1l2 3z" class="fil29"/>
      <path d="M10 4 7 5 6 2c1 0 1-1 2-1l2 3z" class="fil28"/>
      <path d="M10 4 7 5 6 2c1 0 1-1 2-1l2 3z" class="fil28"/>
      <path d="M10 4 7 5 6 2c1 0 1-1 2-1l2 3z" class="fil30"/>
      <path d="M10 4 7 5 6 2c1 0 1-1 2-1l2 3z" class="fil30"/>
      <path d="M10 4 7 5 6 2c1 0 1-1 2-1l2 3z" class="fil30"/>
      <path d="M10 4 7 5 6 2c1 0 1-1 2-1l2 3z" class="fil31"/>
      <path d="M10 4 7 5 6 2c1 0 1-1 2-1l2 3z" class="fil31"/>
      <path d="M10 4 7 5 6 2c1 0 1-1 2-1l2 3z" class="fil31"/>
      <path d="M10 4 7 5 6 2c1 0 1-1 2-1l2 3z" class="fil32"/>
      <path d="M10 4 8 5 6 2c1 0 1-1 2-1l2 3z" class="fil32"/>
      <path d="M9 4 8 5 6 2c1 0 1-1 2-1l1 3z" class="fil33"/>
      <path d="M9 4 8 5 6 2c1 0 1-1 2-1l1 3z" class="fil33"/>
      <path d="M9 4 8 5 6 2c1 0 1-1 2-1l1 3z" class="fil33"/>
      <path d="M9 4 8 5 6 2c1 0 1-1 2-1l1 3z" class="fil34"/>
      <path d="M9 4 8 5 6 2c1 0 1-1 2-1l1 3z" class="fil34"/>
      <path d="M9 4 8 5 6 2c1 0 1-1 2-1l1 3z" class="fil34"/>
      <path d="M9 4 8 5 6 2c1 0 1-1 2-1l1 3z" class="fil35"/>
      <path d="M9 4 8 5 6 2c1 0 1-1 2-1l1 3z" class="fil35"/>
      <path d="M9 4 8 5 6 2c1 0 1-1 2-1l1 3z" class="fil36"/>
      <path d="M9 4 8 5 6 2c1 0 1-1 2-1l1 3z" class="fil36"/>
      <path d="M9 4 8 5 6 2c1 0 1-1 2-1l1 3z" class="fil36"/>
      <path d="M9 4 8 5 7 2s0-1 1-1l1 3z" class="fil37"/>
      <path d="M9 4 8 5 7 2s0-1 1-1l1 3z" class="fil37"/>
      <path d="M9 4 8 5 7 2s0-1 1-1l1 3z" class="fil37"/>
      <path d="M9 4 8 5 7 2s0-1 1-1l1 3z" class="fil38"/>
      <path d="M9 4 8 5 7 2s0-1 1-1l1 3z" class="fil38"/>
      <path d="M9 4 8 5 7 2s0-1 1-1l1 3z" class="fil39"/>
      <path d="M9 4 8 5 7 2s0-1 1-1l1 3z" class="fil39"/>
      <path d="M9 4 8 5 7 2s0-1 1-1l1 3z" class="fil39"/>
      <path d="M9 4 8 5 7 2s0-1 1-1l1 3z" class="fil40"/>
      <path d="M9 4 8 5 7 2s0-1 1-1l1 3z" class="fil40"/>
      <path d="M9 4 8 5 7 2s0-1 1-1l1 3z" class="fil41"/>
      <path d="M9 4 8 5 7 2s0-1 1-1l1 3z" class="fil41"/>
      <path d="M9 4 8 5 7 2s0-1 1-1l1 3z" class="fil41"/>
      <path d="M9 4 8 5 7 2s0-1 1-1l1 3z" class="fil42"/>
      <path d="M9 4 8 5 7 2s0-1 1-1l1 3z" class="fil42"/>
      <path d="m112 5-3-1 2-3c1 0 2 1 3 1l-2 3z" class="fil43"/>
      <path d="m111 5-2-1 2-3c1 0 2 1 3 1l-3 3z" class="fil43"/>
      <path d="m111 5-2-1 2-3c1 0 2 1 2 1l-2 3z" class="fil44"/>
      <path d="m111 5-2-1 2-3c1 0 2 1 2 1l-2 3z" class="fil44"/>
      <path d="m111 5-1-1 1-3c1 0 2 1 2 1l-2 3z" class="fil44"/>
      <path d="m111 5-1-1 1-3c1 0 1 1 2 1l-2 3z" class="fil45"/>
      <path d="m111 5-1-1 1-3c1 0 1 1 2 1l-2 3z" class="fil45"/>
      <path d="m111 5-1-1 2-3s0 1 1 1l-2 3z" class="fil45"/>
      <path d="m111 5-1-1 2-3s0 1 1 1l-2 3z" class="fil46"/>
      <path d="m111 5-1-1 2-3v1l-1 3z" class="fil46"/>
      <path d="m115 8-2-2 3-2c1 1 1 2 2 3l-3 1z" class="fil43"/>
      <path d="m115 8-2-2 3-2c1 1 1 2 2 3l-3 1z" class="fil43"/>
      <path d="m115 8-2-2 3-2c1 1 1 2 2 3l-3 1z" class="fil47"/>
      <path d="m115 8-2-2 3-2c1 1 1 2 2 3l-3 1z" class="fil47"/>
      <path d="m115 8-2-2 3-2c1 1 1 2 2 3l-3 1z" class="fil48"/>
      <path d="m115 8-2-2 3-1c1 0 1 1 2 2l-3 1z" class="fil48"/>
      <path d="m115 8-2-2 3-1c1 0 1 1 2 2l-3 1z" class="fil48"/>
      <path d="m115 8-2-2 3-1c1 0 1 1 2 2l-3 1z" class="fil49"/>
      <path d="m115 8-2-2 3-1c1 0 1 1 2 2l-3 1z" class="fil49"/>
      <path d="m115 8-2-2 3-1c1 0 1 1 2 2l-3 1z" class="fil49"/>
      <path d="m115 8-2-2 3-1c1 0 1 1 2 2l-3 1z" class="fil50"/>
      <path d="m115 8-2-2 3-1c1 0 1 1 2 2l-3 1z" class="fil50"/>
      <path d="m115 8-2-2 3-1c1 0 1 1 2 2l-3 1z" class="fil51"/>
      <path d="m115 8-2-2 3-1c1 0 1 1 2 2l-3 1z" class="fil51"/>
      <path d="m115 8-1-2 2-1c1 0 1 1 2 2l-3 1z" class="fil51"/>
      <path d="m115 8-1-1 2-2c1 0 1 1 2 2l-3 1z" class="fil52"/>
      <path d="m115 8-1-1 2-2c1 0 1 1 2 2l-3 1z" class="fil52"/>
      <path d="m115 8-1-1 2-2 2 2-3 1z" class="fil52"/>
      <path d="m115 8-1-1 2-2 2 2-3 1z" class="fil53"/>
      <path d="m115 8-1-1 3-2c0 1 0 1 1 2l-3 1z" class="fil53"/>
      <path d="m115 8-1-1 3-2c0 1 0 1 1 2l-3 1z" class="fil54"/>
      <path d="m115 8-1-1 3-2c0 1 0 1 1 2l-3 1z" class="fil54"/>
      <path d="m115 8-1-1 3-2c0 1 0 1 1 2l-3 1z" class="fil54"/>
      <path d="m115 8-1-1 3-2c0 1 0 1 1 2l-3 1z" class="fil55"/>
      <path d="m115 8-1-1 3-2c0 1 0 1 1 2l-3 1z" class="fil55"/>
      <path d="m115 8-1-1 3-2c0 1 0 1 1 2l-3 1z" class="fil56"/>
      <path d="m115 8-1-1 3-2c0 1 0 1 1 2l-3 1z" class="fil56"/>
      <path d="m115 8-1-1 3-2c0 1 0 1 1 2l-3 1z" class="fil56"/>
      <path d="m115 8-1-1 3-2c0 1 0 1 1 2l-3 1z" class="fil57"/>
      <path d="m115 8-1-1 3-2c0 1 0 1 1 2l-3 1z" class="fil57"/>
      <path d="m115 199 1-2h3c0 1-1 2-1 3l-3-1z" class="fil26"/>
      <path d="m115 199 1-2h3c0 1-1 2-1 3l-3-1z" class="fil26"/>
      <path d="m115 199 1-2h3c0 1-1 2-1 3l-3-1z" class="fil26"/>
      <path d="m115 199 1-2h3c0 1-1 2-1 3l-3-1z" class="fil26"/>
      <path d="m115 199 1-2h3c0 1-1 2-1 3l-3-1z" class="fil26"/>
      <path d="m115 199 1-2h3c0 1-1 2-1 3l-3-1z" class="fil26"/>
      <path d="m115 199 1-2h3c0 1-1 2-1 3l-3-1z" class="fil25"/>
      <path d="m115 199 1-2h3c0 1-1 2-1 3l-3-1z" class="fil24"/>
      <path d="m115 199 1-2h3c0 1-1 2-1 3l-3-1z" class="fil24"/>
      <path d="m115 199 1-2h3c0 1-1 2-1 3l-3-1z" class="fil24"/>
      <path d="m115 199 1-2h3c0 1-1 2-1 3l-3-1z" class="fil5"/>
      <path d="m115 199 1-2h3c0 1-1 2-1 3l-3-1z" class="fil5"/>
      <path d="m115 199 1-2h3c0 1-1 2-1 3l-3-1z" class="fil6"/>
      <path d="m115 199 1-2h3c0 1-1 2-1 3l-3-1z" class="fil6"/>
      <path d="m115 199 1-2h3c0 1-1 2-1 3l-3-1z" class="fil6"/>
      <path d="m115 199 1-2h3c0 1-1 2-1 3l-3-1z" class="fil7"/>
      <path d="m115 199 1-2h3c0 1-1 2-1 3l-3-1z" class="fil7"/>
      <path d="m115 199 1-2h3c0 1-1 2-1 3l-3-1z" class="fil7"/>
      <path d="m115 199 1-2h3c0 1-1 2-1 3l-3-1z" class="fil8"/>
      <path d="m115 199 1-2 3 1s-1 1-1 2l-3-1z" class="fil8"/>
      <path d="m115 199 1-2 3 1s-1 1-1 2l-3-1z" class="fil9"/>
      <path d="m115 199 1-2 3 1s-1 1-1 2l-3-1z" class="fil9"/>
      <path d="m115 199 1-2 3 1s-1 1-1 2l-3-1z" class="fil9"/>
      <path d="m115 199 1-2 3 1s-1 1-1 2l-3-1z" class="fil10"/>
      <path d="m115 199 1-2 3 1c-1 0-1 1-1 2l-3-1z" class="fil10"/>
      <path d="m115 199 1-2 3 1c-1 0-1 1-1 2l-3-1z" class="fil11"/>
      <path d="m115 199 1-2 3 1c-1 0-1 1-1 2l-3-1z" class="fil11"/>
      <path d="m115 199 1-2 3 1c-1 0-1 1-1 2l-3-1z" class="fil11"/>
      <path d="m115 199 1-2 3 1c-1 0-1 1-1 2l-3-1z" class="fil12"/>
      <path d="M115 199v-2l4 1c-1 0-1 1-1 2l-3-1z" class="fil12"/>
      <path d="M115 199v-2l4 1c-1 0-1 1-1 2l-3-1z" class="fil12"/>
      <path d="M115 199v-2l4 1c-1 1-1 1-1 2l-3-1z" class="fil13"/>
      <path d="M115 199v-2l4 1c-1 1-1 1-1 2l-3-1z" class="fil13"/>
      <path d="M115 199v-2l4 1c-1 1-1 1-1 2l-3-1z" class="fil14"/>
      <path d="M115 199v-2l4 1c-1 1-1 1-1 2l-3-1z" class="fil14"/>
      <path d="M115 199v-2l4 1c-1 1-1 1-1 2l-3-1z" class="fil14"/>
      <path d="M115 199v-2l4 1c-1 1-1 1-1 2l-3-1z" class="fil15"/>
      <path d="M115 199v-2l4 1c-1 1-1 1-1 2l-3-1z" class="fil15"/>
      <path d="M115 199v-2l4 1c-1 1-1 1-1 2l-3-1z" class="fil16"/>
      <path d="M115 199v-2l4 1c-1 1-1 1-1 2l-3-1z" class="fil16"/>
      <path d="M115 199v-2l4 1c-1 1-1 1-1 2l-3-1z" class="fil16"/>
      <path d="M115 199v-2l4 1c-1 1-1 1-1 2l-3-1z" class="fil17"/>
      <path d="M115 199v-2l4 1c-1 1-1 1-1 2l-3-1z" class="fil17"/>
      <path d="M115 199v-2l4 1c-1 1-1 1-1 2l-3-1z" class="fil17"/>
      <path d="M115 199v-2l4 1c-1 1-1 1-1 2l-3-1z" class="fil18"/>
      <path d="M115 199v-2l4 1c-1 1-1 1-1 2l-3-1z" class="fil18"/>
      <path d="M115 199v-2l3 1v2l-3-1z" class="fil19"/>
      <path d="M115 199v-2l3 1v2l-3-1z" class="fil19"/>
      <path d="m118 8-3 2-1-3 3-1c1 1 1 1 1 2z" class="fil58"/>
      <path d="m118 8-3 2-1-3 3-1c1 1 1 1 1 2z" class="fil58"/>
      <path d="m118 8-3 2-1-3 3-1c1 1 1 1 1 2z" class="fil59"/>
      <path d="m118 8-3 2-1-3 3-1c1 1 1 1 1 2z" class="fil59"/>
      <path d="m118 8-3 1-1-2 3-1c1 1 1 1 1 2z" class="fil60"/>
      <path d="m118 8-3 1-1-2 3-1c1 1 1 1 1 2z" class="fil60"/>
      <path d="m118 8-3 1-1-2 3-1c1 1 1 1 1 2z" class="fil60"/>
      <path d="m118 8-3 1-1-2 3-1c1 1 1 1 1 2z" class="fil61"/>
      <path d="m118 8-3 1-1-2 3-1c1 1 1 1 1 2z" class="fil61"/>
      <path d="m118 8-3 1-1-2 3-1c1 1 1 1 1 2z" class="fil62"/>
      <path d="m118 8-3 1-1-2 3-1c1 1 1 1 1 2z" class="fil62"/>
      <path d="m118 8-3 1-1-2 3-1c1 1 1 1 1 2z" class="fil62"/>
      <path d="m118 8-3 1-1-2 3-1c1 1 1 1 1 2z" class="fil63"/>
      <path d="m118 8-3 1-1-2 3-1c1 1 1 1 1 2z" class="fil63"/>
      <path d="m118 8-3 1-1-2 3-1c1 1 1 1 1 2z" class="fil63"/>
      <path d="m118 8-3 1-1-2 3-1c0 1 1 1 1 2z" class="fil64"/>
      <path d="m118 8-3 1-1-2 3-1c0 1 1 1 1 2z" class="fil64"/>
      <path d="m118 8-3 1-1-2 3-1c0 1 1 1 1 2z" class="fil65"/>
      <path d="m118 8-3 1-1-2 3-1c0 1 1 1 1 2z" class="fil65"/>
      <path d="m118 8-3 1-1-2 3-1c0 1 1 1 1 2z" class="fil65"/>
      <path d="m118 8-3 1-1-2 3-1c0 1 1 1 1 2z" class="fil46"/>
      <path d="m118 8-3 1-1-2 3-1c0 1 1 1 1 2z" class="fil46"/>
      <path d="m118 8-3 1-1-2 3-1c0 1 1 1 1 2z" class="fil46"/>
      <path d="m118 8-3 1-1-2 3-1c0 1 1 1 1 2z" class="fil45"/>
      <path d="m118 8-3 1-1-2 3-1c0 1 1 1 1 2z" class="fil45"/>
      <path d="m118 8-3 1-1-2 3-1c0 1 1 1 1 2z" class="fil44"/>
      <path d="m118 8-3 1-1-2 3-1s1 1 1 2z" class="fil44"/>
      <path d="m118 7-3 2-1-2 3-1 1 1z" class="fil44"/>
      <path d="m118 7-3 2-1-2 3-1 1 1z" class="fil43"/>
      <path d="m118 7-3 2-1-2 3-1 1 1z" class="fil43"/>
      <path d="m118 7-3 2-1-2 3-1 1 1z" class="fil47"/>
      <path d="m118 7-3 2-1-2 3-1 1 1z" class="fil47"/>
      <path d="m118 7-3 2-1-2 3-1 1 1z" class="fil47"/>
      <path d="m118 7-3 2-1-2 3-1 1 1z" class="fil48"/>
      <path d="m118 7-3 2-1-2 3-1 1 1z" class="fil48"/>
      <path d="m118 7-3 2-1-2 3-1 1 1z" class="fil49"/>
      <path d="m118 7-3 2-1-2 3-1 1 1z" class="fil49"/>
      <path d="m118 7-3 2-1-2 3-1 1 1z" class="fil49"/>
      <path d="m118 7-3 2-1-2 3-1 1 1z" class="fil50"/>
      <path d="m118 7-3 2-1-2 3-1 1 1z" class="fil50"/>
      <path d="m118 7-3 2-1-2 3-1 1 1z" class="fil50"/>
      <path d="m118 7-3 1-1-1 3-1 1 1z" class="fil51"/>
      <path d="m118 7-3 1-1-1 3-1 1 1z" class="fil51"/>
      <path d="m118 7-3 1-1-1 3-1 1 1z" class="fil52"/>
      <path d="m118 7-3 1-1-1 3-1 1 1z" class="fil52"/>
      <path d="m118 7-3 1-1-1 3-1 1 1z" class="fil52"/>
      <path d="m118 7-3 1-1-1 3-1 1 1z" class="fil53"/>
      <path d="m118 7-3 1-1-1 3-1 1 1z" class="fil53"/>
      <path d="m118 7-3 1-1-1 3-1s0 1 1 1z" class="fil54"/>
      <path d="m118 7-3 1-1-1 3-1s0 1 1 1z" class="fil54"/>
      <path d="m118 7-3 1-1-1 3-1s0 1 1 1z" class="fil54"/>
      <path d="m118 7-3 1-1-1 3-1s0 1 1 1z" class="fil55"/>
      <path d="m118 7-3 1-1-1 3-1s0 1 1 1z" class="fil55"/>
      <path d="m118 7-3 1-1-1 3-1s0 1 1 1z" class="fil56"/>
      <path d="m118 7-3 1-1-1 3-1s0 1 1 1z" class="fil56"/>
      <path d="m118 7-4 1V7l3-1 1 1z" class="fil56"/>
      <path d="m118 7-4 1V7l3-1 1 1z" class="fil57"/>
      <path d="m118 7-4 1V7l3-1 1 1z" class="fil57"/>
      <path d="m1 198 3-1 1 4-3 1c-1-1-1-3-1-4z" class="fil66"/>
      <path d="m1 198 3-1 1 4-3 1c-1-1-1-2-1-4z" class="fil66"/>
      <path d="m1 198 3-1 1 4-3 1c-1-1-1-2-1-4z" class="fil67"/>
      <path d="m1 198 3-1 1 4-3 1c-1-1-1-2-1-4z" class="fil67"/>
      <path d="m1 199 3-1 1 3-3 1c-1-1-1-2-1-3z" class="fil67"/>
      <path d="m1 199 3-1 1 3-3 1c0-1-1-2-1-3z" class="fil68"/>
      <path d="m1 199 3-1 1 3-3 1c0-1-1-2-1-3z" class="fil68"/>
      <path d="m1 199 3-1 1 3-3 1c0-1-1-2-1-3z" class="fil69"/>
      <path d="m1 199 3-1 1 3-3 1c0-1-1-2-1-3z" class="fil69"/>
      <path d="m1 199 3-1 1 3-3 1c0-1-1-2-1-3z" class="fil69"/>
      <path d="m1 199 3-1 1 3-3 1c0-1-1-2-1-3z" class="fil70"/>
      <path d="m1 199 3-1 1 3-3 1c0-1-1-2-1-3z" class="fil70"/>
      <path d="m1 199 3-1 1 3-3 1c0-1-1-2-1-3z" class="fil70"/>
      <path d="m1 199 3-1 1 3-3 1c0-1-1-2-1-3z" class="fil71"/>
      <path d="m1 200 3-2 1 3-3 1c0-1-1-2-1-2z" class="fil71"/>
      <path d="m1 200 3-1 1 2-3 1c0-1-1-2-1-2z" class="fil72"/>
      <path d="m1 200 3-1 1 2-3 1c0-1-1-1-1-2z" class="fil72"/>
      <path d="m1 200 3-1 1 2-3 1c0-1-1-1-1-2z" class="fil72"/>
      <path d="m1 200 3-1 1 2-3 1c0-1-1-1-1-2z" class="fil73"/>
      <path d="m1 200 3-1 1 2-3 1c0-1-1-1-1-2z" class="fil73"/>
      <path d="m1 200 3-1 1 2-3 1c0-1 0-1-1-2z" class="fil73"/>
      <path d="m1 200 3-1 1 2-3 1s0-1-1-2z" class="fil74"/>
      <path d="m1 200 3-1 1 2-3 1s0-1-1-2z" class="fil74"/>
      <path d="m1 200 3-1 1 2-3 1s0-1-1-2z" class="fil75"/>
      <path d="m1 200 3-1 1 2-3 1s0-1-1-2z" class="fil75"/>
      <path d="m2 202 3-1 2 2-3 2c0-1-1-2-2-3z" class="fil75"/>
      <path d="m2 202 3-1 2 2-3 2c0-1-1-2-2-3z" class="fil75"/>
      <path d="m2 202 3-1 2 2-3 2c0-1-1-2-2-3z" class="fil74"/>
      <path d="m2 202 3-1 2 2-3 2c0-1-1-2-2-3z" class="fil74"/>
      <path d="m2 202 3-1 2 2-3 2c0-1-1-2-2-3z" class="fil73"/>
      <path d="m2 202 3-1 2 2-3 2c0-1-1-2-2-3z" class="fil73"/>
      <path d="m2 202 3-1 2 2-3 2c0-1-1-2-2-3z" class="fil73"/>
      <path d="m2 202 3-1 2 2-3 2c0-1-1-2-2-3z" class="fil72"/>
      <path d="m2 202 3-1 2 2-3 2c0-1-1-2-2-3z" class="fil72"/>
      <path d="m2 202 3-1 2 2-3 2c0-1-1-2-2-3z" class="fil71"/>
      <path d="m2 202 3-1 2 2-3 2c0-1-1-2-2-3z" class="fil71"/>
      <path d="m2 202 3-1 2 2-3 2c0-1-1-2-2-3z" class="fil71"/>
      <path d="m2 202 3-1 2 2-3 2c0-1-1-2-2-3z" class="fil70"/>
      <path d="m2 202 3-1 2 2-3 2c0-1-1-2-2-3z" class="fil70"/>
      <path d="m2 202 3-1 2 2-3 2c0-1-1-2-2-3z" class="fil70"/>
      <path d="m2 202 3-1 2 2-3 2c0-1-1-2-2-3z" class="fil69"/>
      <path d="m2 202 3-1 2 2-3 2c0-1-1-2-2-3z" class="fil69"/>
      <path d="m3 203 2-2 2 2-3 2c0-1-1-2-1-2z" class="fil68"/>
      <path d="m3 203 2-2 2 2-3 2c0-1-1-2-1-2z" class="fil68"/>
      <path d="m3 203 2-2 2 2-3 2c0-1-1-2-1-2z" class="fil68"/>
      <path d="m3 203 2-2 2 2-3 2c0-1-1-2-1-2z" class="fil67"/>
      <path d="m3 203 2-2 2 2-3 2c0-1-1-2-1-2z" class="fil67"/>
      <path d="m3 203 2-2 2 2-3 2c0-1-1-2-1-2z" class="fil66"/>
      <path d="m3 203 2-2 2 2-3 2c0-1-1-2-1-2z" class="fil66"/>
      <path d="m3 203 2-2 2 2-3 2c0-1-1-2-1-2z" class="fil66"/>
      <path d="m3 203 2-2 2 2-3 2c0-1-1-2-1-2z" class="fil76"/>
      <path d="m3 203 2-2 2 2-3 2c0-1-1-2-1-2z" class="fil76"/>
      <path d="m3 203 2-2 2 2-3 2c0-1-1-2-1-2z" class="fil77"/>
      <path d="m3 203 2-2 2 2-2 2c-1-1-2-1-2-2z" class="fil77"/>
      <path d="m3 203 2-2 2 2-2 2c-1-1-2-1-2-2z" class="fil77"/>
      <path d="m3 203 2-2 2 2-2 2c-1-1-2-1-2-2z" class="fil78"/>
      <path d="m3 203 2-2 2 2-2 2c-1-1-2-1-2-2z" class="fil78"/>
      <path d="m3 203 2-2 2 2-2 2c-1-1-2-1-2-2z" class="fil78"/>
      <path d="m3 203 2-2 2 2-2 2c-1-1-2-1-2-2z" class="fil79"/>
      <path d="m3 203 2-2 2 2-2 2c-1-1-2-1-2-2z" class="fil79"/>
      <path d="m3 203 2-2 2 2-2 2c-1-1-2-1-2-2z" class="fil80"/>
      <path d="m3 203 2-2 2 2-2 2c-1-1-2-1-2-2z" class="fil80"/>
      <path d="m3 203 2-2 2 2-2 2c-1-1-2-1-2-2z" class="fil80"/>
      <path d="m3 203 2-2 2 2-2 2c-1-1-2-1-2-2z" class="fil23"/>
      <path d="m3 203 2-2 2 2-2 2c-1-1-2-1-2-2z" class="fil23"/>
      <path d="m3 203 2-2 2 2-2 2c-1-1-2-1-2-2z" class="fil22"/>
      <path d="m3 203 2-2 2 2-2 2c-1-1-2-1-2-2z" class="fil22"/>
      <path d="m3 203 3-2 1 2-2 2c-1-1-2-1-2-2z" class="fil22"/>
      <path d="m3 203 3-2 1 2-2 2c-1-1-2-1-2-2z" class="fil21"/>
      <path d="m3 203 3-2 1 2-2 2c-1-1-2-1-2-2z" class="fil21"/>
      <path d="m3 203 3-2 1 2-2 2c-1-1-2-1-2-2z" class="fil20"/>
      <path d="m3 203 3-2 1 2-2 2-2-2z" class="fil20"/>
      <path d="m3 203 3-2 1 2-2 2-2-2z" class="fil20"/>
      <path d="m3 203 3-2 1 2-2 2-2-2z" class="fil19"/>
      <path d="m3 203 3-1 1 1-2 2-2-2z" class="fil19"/>
      <path d="m3 203 3-1 1 1-2 2-2-2z" class="fil19"/>
      <path d="m3 203 3-1 1 1-2 2-2-2z" class="fil18"/>
      <path d="m3 203 3-1 1 1-2 2-2-2z" class="fil18"/>
      <path d="m3 203 3-1 1 1-2 2-2-2z" class="fil17"/>
      <path d="m3 203 3-1 1 1-2 2-2-2z" class="fil17"/>
      <path d="m3 203 3-1 1 1-2 2-2-2z" class="fil17"/>
      <path d="m3 204 3-2 1 1-2 2c-1-1-1-1-2-1z" class="fil16"/>
      <path d="m3 204 3-2 1 1-2 2c-1-1-1-1-2-1z" class="fil16"/>
      <path d="m3 204 3-2 1 1-2 2c-1-1-1-1-2-1z" class="fil15"/>
      <path d="m3 204 3-2 1 1-2 2c-1-1-1-1-2-1z" class="fil15"/>
      <path d="m3 204 3-2 1 1-2 2c-1-1-1-1-2-1z" class="fil15"/>
      <path d="m3 204 3-2 1 1-2 2c-1-1-1-1-2-1z" class="fil14"/>
      <path d="m3 204 3-2 1 1-2 2c-1-1-1-1-2-1z" class="fil14"/>
      <path d="m3 204 3-2 1 1-2 2c-1-1-1-1-2-1z" class="fil13"/>
      <path d="m3 204 3-2 1 1-2 2c-1-1-1-1-2-1z" class="fil13"/>
      <path d="m3 204 3-2 1 1-2 2c-1 0-1-1-2-1z" class="fil13"/>
      <path d="m3 204 3-2 1 1-2 2c-1 0-1-1-2-1z" class="fil12"/>
      <path d="m4 204 2-2 1 1-2 2c-1 0-1-1-1-1z" class="fil12"/>
      <path d="m4 204 2-2 1 1-2 2c-1 0-1-1-1-1z" class="fil12"/>
      <path d="m4 204 2-2 1 1-2 2c-1 0-1-1-1-1z" class="fil11"/>
      <path d="m4 204 2-2 1 1-2 2c-1 0-1-1-1-1z" class="fil11"/>
      <path d="m4 204 2-2 1 1-2 2c-1 0-1-1-1-1z" class="fil10"/>
      <path d="m4 204 2-2 1 1-2 2c-1 0-1-1-1-1z" class="fil10"/>
      <path d="m4 204 2-2 1 1-2 2c-1 0-1-1-1-1z" class="fil10"/>
      <path d="m4 204 2-2 1 1-2 2c-1 0-1-1-1-1z" class="fil9"/>
      <path d="m4 204 2-2 1 1-2 2c-1 0-1-1-1-1z" class="fil9"/>
      <path d="m4 204 2-2 1 1-2 2c-1 0-1-1-1-1z" class="fil8"/>
      <path d="m4 204 2-2 1 1-2 2c-1 0-1-1-1-1z" class="fil8"/>
      <path d="m4 204 2-2 1 1-2 2c-1 0-1-1-1-1z" class="fil8"/>
      <path d="m4 204 2-2 1 1-2 2c-1 0-1-1-1-1z" class="fil7"/>
      <path d="m4 204 2-2 1 1-2 2c-1 0-1-1-1-1z" class="fil7"/>
      <path d="m4 204 2-2 1 1-2 2c-1 0-1-1-1-1z" class="fil6"/>
      <path d="m4 204 2-2 1 1-2 2c-1 0-1-1-1-1z" class="fil6"/>
      <path d="m4 204 2-2 1 1-2 2c-1 0-1-1-1-1z" class="fil6"/>
      <path d="m4 204 2-2 1 1-2 2c-1 0-1-1-1-1z" class="fil5"/>
      <path d="m4 204 2-2 1 1-2 2c-1 0-1-1-1-1z" class="fil5"/>
      <path d="m4 204 2-2 1 1-2 2c-1 0-1-1-1-1z" class="fil5"/>
      <path d="m4 204 2-2 1 1-2 2c-1 0-1-1-1-1z" class="fil24"/>
      <path d="m4 204 2-2 1 1-2 2c-1 0-1 0-1-1z" class="fil24"/>
      <path d="m4 204 2-2 1 1-2 2c-1 0-1 0-1-1z" class="fil25"/>
      <path d="m4 204 2-2 1 1-2 2c-1 0-1 0-1-1z" class="fil26"/>
      <path d="m7 203 2 1v3c-1 0-3-1-4-2l2-2z" class="fil14"/>
      <path d="m7 203 2 1v3c-1 0-3-1-4-2l2-2z" class="fil14"/>
      <path d="m7 203 2 1v3c-2 0-3-1-4-2l2-2z" class="fil13"/>
      <path d="m7 203 2 1v3c-2 0-3-1-4-2l2-2z" class="fil13"/>
      <path d="m7 203 2 1v3c-2 0-3-1-4-2l2-2z" class="fil12"/>
      <path d="m7 203 2 1v3c-2 0-3-1-4-2l2-2z" class="fil12"/>
      <path d="m7 203 2 1-1 3c-1 0-2-1-3-2l2-2z" class="fil12"/>
      <path d="m7 203 2 1-1 3c-1 0-2-1-3-2l2-2z" class="fil11"/>
      <path d="m7 203 2 1-1 3c-1 0-2-1-3-2l2-2z" class="fil11"/>
      <path d="m7 203 2 1-1 3c-1-1-2-1-3-2l2-2z" class="fil11"/>
      <path d="m7 203 2 1-1 3c-1-1-2-1-3-2l2-2z" class="fil10"/>
      <path d="m7 203 2 1-1 3c-1-1-2-1-3-2l2-2z" class="fil10"/>
      <path d="m7 203 2 1-1 3c-1-1-2-1-3-2l2-2z" class="fil9"/>
      <path d="m7 203 2 1-1 3c-1-1-2-1-3-2l2-2z" class="fil9"/>
      <path d="m7 203 2 1-1 3c-1-1-2-1-3-2l2-2z" class="fil9"/>
      <path d="m7 203 2 1-1 3c-1-1-2-1-3-2l2-2z" class="fil8"/>
      <path d="m7 203 2 1-1 3c-2-1-2-1-3-2l2-2z" class="fil8"/>
      <path d="m7 203 2 1-2 3-2-2 2-2z" class="fil8"/>
      <path d="m7 203 2 1-2 3c-1-1-2-1-2-2l2-2z" class="fil7"/>
      <path d="m7 203 2 1-2 3c-1-1-2-1-2-2l2-2z" class="fil7"/>
      <path d="m7 203 1 1-1 2c-1 0-2 0-2-1l2-2z" class="fil6"/>
      <path d="m7 203 1 1-1 2c-1 0-2-1-2-1l2-2z" class="fil6"/>
      <path d="m7 203 1 1-1 2c-1 0-2-1-2-1l2-2z" class="fil6"/>
      <path d="m7 203 1 1-1 2c-1 0-2-1-2-1l2-2z" class="fil5"/>
      <path d="m7 203 1 1-1 2c-1 0-2-1-2-1l2-2z" class="fil5"/>
      <path d="m7 203 1 1-1 2c-1 0-2-1-2-1l2-2z" class="fil24"/>
      <path d="m7 203 1 1-1 2c-1 0-2-1-2-1l2-2z" class="fil24"/>
      <path d="m7 203 1 1-1 2c-1 0-2-1-3-1l3-2z" class="fil24"/>
      <path d="m7 203 1 1-2 2s-1-1-2-1l3-2z" class="fil25"/>
      <path d="m7 203 1 1-2 2s-1-1-2-1l3-2z" class="fil26"/>
      <path d="M12 6c-4 0-6 2-6 6v185c0 3 2 6 6 6h96c3 0 5-3 5-6V12c0-4-2-6-5-6H12z" class="fil81"/>
      <path d="M12 3c-5 0-9 4-9 9v184c0 5 4 9 9 9h94c6 0 9-4 9-9V12c0-5-4-9-9-9H12z" style="fill:url(#id5)"/>
      <path d="M61 124c-1-1-3-1-4-1 0-2 1-3 2-5 3 1 7 1 8 1v-4c3 0 6 1 9 1v36c0 1 0 4 2 5v1H65v-1c2-1 2-4 2-5v-28h-6zM56 74h22c-3 2-2 6-2 6v28c-1 0-2 0-3-1-2 0-4-1-6-2V79H54c1-2 1-4 2-5z" class="fil83"/>
      <path d="M52 84c0-6 2-10 5-12 2-2 4-2 5-3h22v41c-2 0-8 0-12-1-13-4-20-14-20-25zm-12 66h17c-1-1-5-3-5-10 0-5 1-11 3-18 1-3 3-7 5-11 3 1 8 2 11 3 2 0 4 1 7 1 2 0 5 1 6 1v28c0 1 0 4-2 6h13c-2-1-2-5-2-6V70s-1-4 2-5v-1H66c-2 0-6 1-7 1-8 1-13 6-16 14-2 6-1 15 4 21 1 2 4 5 7 7l2 2c-5 6-7 10-9 18-3 6-5 15-5 17 0 5-2 6-2 6z" class="fil83"/>
      <path d="M26 152c0-2 2-10 5-17 2-7 4-11 9-18-1 0-1 0-2-1-3-2-6-6-7-7-5-6-6-15-4-21 3-8 8-12 15-14h2c-1 1-2 3-2 4s-1 2-1 3c-3 2-5 6-5 12 0 9 5 18 14 22-1 2-2 4-2 6-2-1-3-1-4-1-2 3-4 8-5 11-2 6-3 12-3 17 0 7 4 9 5 9v1H24v-1s2 0 2-5z" class="fil83"/>
      <path d="M32 32h8v2H30V17h2zM45 34h-2V17h2zM66 34h-3V21l-5 6h-1l-5-6v13h-2V17h2l6 7 5-7h3zM78 32c4 0 7-3 7-6 0-4-3-7-7-7-3 0-6 3-6 7 0 3 3 6 6 6zm0-15c6 0 10 4 10 9 0 4-4 8-10 8-5 0-9-4-9-8 0-5 4-9 9-9zM22 178c-1-1-3-2-4-2-2 0-3 1-3 2 0 4 8 4 8 9 0 3-2 5-5 5-2 0-3-1-5-2v-3c1 2 3 3 5 3s2-2 2-3c0-3-7-4-7-8 0-3 2-5 5-5 2 0 3 0 4 1v3zM36 177h-7v5h7v2h-7v5h7v2H26v-17h10zM42 182h2c2 0 3-2 3-3 0-2-1-3-3-3h-2v6zm2-8c3 0 5 2 5 5 0 2-1 4-2 4 1 1 2 3 3 5l3 3h-3l-2-3c-3-4-4-4-5-4h-1v7h-2v-17h4zM60 192h-1l-7-18h2l5 12 6-12h2zM72 191h-3v-17h3zM91 178c-2-1-4-2-6-2-4 0-7 3-7 7s3 6 7 6c2 0 4 0 6-1v2c-2 1-4 2-6 2-7 0-10-5-10-9 0-5 4-9 10-9 2 0 3 1 6 1v3zM104 177h-7v5h7v2h-7v5h8v2H95v-17h9z" class="fil84"/>
      <path d="M34 63c2 0 5-1 7-2 1 0 3-1 4-1 0 0 1 2 1 3 0 0 0-1 0 0 1-1 1 0 1-2v-2l6-3v9c1 0 2-1 2-1 0-1 1-2 1-3l1-6c2-1 5-2 5-4l-1-1c-1 0-1 0-2 1l-3 1h-1l-7-4c-1 0-2 1-2 1l6 5-5 4c-1 0-3-2-3-2h-1c0 1 1 2 2 3-2 1-3 1-5 2-10 2-26-1-31-11l-1-2v10h1c4 4 8 6 14 7 3 0 8-1 11-2z" class="fil83"/>
      <path d="M62 57s1 1 1 2c0 0 0-1 0 0 1-1 1 0 1-1v-2s4-2 5-2v6s1 0 1-1v-1l1-5c0-1 0-1 1-1s3-1 3-3h-2l-2 1c-1 1-1 0-1 0l-6-2c0-1-1 0-2 0 1 0 5 4 6 4l-5 3-2-2-1 1s2 1 2 2v1z" class="fil83"/>
      <path d="M61 123h-5v-1c1-1 1-3 2-4 4 0 8 1 9 1v-5c3 1 6 1 8 2v36c0 1 0 4 3 5v1H65v-1c2-1 2-4 2-5v-28c-1 0-4 0-6-1zM56 73h21v1c-2 1-2 5-2 5v29c-1-1-2-1-3-1-2-1-3-1-5-2V78H54c0-2 1-3 2-5z" class="fil26"/>
      <path d="M52 84c0-7 2-11 5-13 1-1 3-2 5-2h22v41c-2 0-8-1-12-2-14-4-20-13-20-24zm-13 66h18v-1c-1 0-6-2-6-9 0-6 2-11 4-18 1-3 3-8 5-11 2 1 7 2 10 3 3 0 5 0 8 1h6v29c0 1 0 4-3 5v1h14v-1c-3-1-3-4-3-5V70s0-4 2-6H66c-3 0-6 0-8 1-7 1-13 5-15 13-3 7-1 15 3 22 1 1 4 5 8 7 0 1 1 1 1 1-4 7-6 11-9 19-2 6-4 15-4 17-1 5-2 5-3 5v1z" class="fil26"/>
      <path d="M26 152c0-2 2-11 4-17 3-8 5-11 9-18 0-1-1-1-1-1-4-3-7-6-8-7-4-7-5-15-3-21 2-8 8-12 15-14h1c-1 1-1 3-2 4v2s-1 0-1 1c-2 2-4 5-4 12 0 9 4 17 14 22l-3 6c-1-1-2-1-3-2-2 4-4 9-5 11-3 7-4 13-4 18 0 7 5 9 5 9v1H24v-1s1 0 2-5z" class="fil26"/>
      <path d="M32 32h8v2H30V17h2zM45 34h-3V17h3zM65 34h-2V20l-6 7-5-7v14h-3V17h3l5 7 6-7h2zM78 32c4 0 7-3 7-7s-3-6-7-6-7 2-7 6 3 7 7 7zm0-16c6 0 9 4 9 9s-3 9-9 9-9-4-9-9 3-9 9-9zM22 178c-2-2-3-2-4-2-2 0-3 1-3 2 0 3 7 3 7 9 0 2-2 4-4 4s-4 0-5-1v-3c1 1 3 2 4 2 2 0 3-1 3-2 0-4-7-4-7-9 0-2 2-4 5-4 1 0 3 0 4 1v3zM36 176h-8v5h7v3h-7v5h8v2H26v-17h10zM42 181h1c3 0 4-1 4-2 0-2-1-3-4-3h-1v5zm1-7c4 0 6 2 6 5 0 2-1 3-3 4 2 1 3 3 4 5 1 1 1 2 2 3h-3l-2-3c-2-4-3-4-4-4h-1v7h-3v-17h4zM59 191l-8-17h3l5 12 5-12h3zM72 191h-3v-17h3zM90 178c-2-1-3-2-5-2-4 0-7 3-7 7 0 3 3 6 7 6 2 0 4-1 6-2v3c-2 1-4 1-7 1-6 0-9-5-9-8 0-5 4-9 10-9 1 0 3 0 5 1v3zM104 176h-7v5h7v3h-7v5h7v2H94v-17h10z" class="fil85"/>
      <path d="M34 63c2-1 5-1 7-2 1-1 3-2 4-2v3h1c1 0 1 0 1-1v-2l6-3v8s2 0 2-1v-2l2-6v-1c1-1 5-2 4-4h-2l-3 2h-1l-8-4-2 1s7 4 7 5l-6 3s-3-1-3-2l-1 1 2 2c-1 2-2 2-4 2-10 3-26-1-31-10-1-1-1-2-1-2v10c5 4 9 6 15 6 3 0 7 0 11-1z" class="fil26"/>
      <path d="M62 56v2h1v-2c0-1 5-3 5-3v7l2-1v-2l1-5c1-1 4-2 4-3h-2l-3 1-6-3c-1 0-2 1-2 1s5 3 5 4l-4 2-2-1h-1c0 1 1 2 1 2l1 1z" class="fil26"/>
      <path d="M109 12v30H8V12s0-3 3-3h95c3 0 3 3 3 3zm0 151H8V45h101v118zm0 33s0 3-3 3H11c-3 0-3-3-3-3v-29h101v29zM106 6H11c-3 0-6 3-6 6v184c0 3 3 6 6 6h95c3 0 6-2 6-6V12c0-3-2-6-6-6z" class="fil26"/>
    </g>
  </g>
</svg>